<svg width="1080" height="1080" viewBox="0 0 1080 1080" fill="none" xmlns="http://www.w3.org/2000/svg">
<path d="M596.429 745.393C584.834 756.438 569.374 764.236 550.805 763.326C520.882 761.866 498.86 754.411 483.143 742.06C471.067 732.561 462.736 720.193 457.411 705.369C445.164 671.289 512.568 674.862 541.701 673.23C541.701 673.23 601.84 674.381 616.578 686.079C626.129 693.688 617.866 725.037 596.429 745.393Z" fill="#211919"/>
<path d="M596.429 745.392C584.834 756.438 569.374 764.236 550.805 763.326C520.882 761.866 498.86 754.411 483.143 742.06C495.562 729.417 512.379 721.069 530.003 719.145C551.458 716.792 573.806 723.972 589.867 738.401C592.203 740.497 594.436 742.85 596.429 745.392Z" fill="#4F4F4F"/>
</svg>
