<svg width="1080" height="1080" viewBox="0 0 1080 1080" fill="none" xmlns="http://www.w3.org/2000/svg">
<path d="M566.377 726.984C564.341 736.524 559.68 745.513 552.88 752.518C545.889 759.727 533.621 759.945 525.067 754.669C517.665 750.11 512.838 742.273 510.34 733.886C509.956 732.567 509.623 731.248 509.342 729.916C507.293 720.069 507.933 709.901 508.586 699.861C509.598 684.303 525.169 671.254 540.677 672.97C557.862 674.878 565.327 694.765 567.184 710.08C567.863 715.715 567.568 721.439 566.377 726.984Z" fill="#211919"/>
<path d="M566.377 726.984C564.341 736.524 559.68 745.513 552.88 752.518C545.889 759.727 533.621 759.945 525.067 754.669C517.665 750.11 512.838 742.273 510.34 733.886C517.627 726.407 527.73 721.426 538.18 720.594C547.989 719.813 557.734 722.271 566.377 726.984Z" fill="#4F4F4F"/>
</svg>
