<svg width="254" height="277" viewBox="0 0 254 277" fill="none" xmlns="http://www.w3.org/2000/svg">
<g clip-path="url(#clip0_555_25863)">
<mask id="mask0_555_25863" style="mask-type:luminance" maskUnits="userSpaceOnUse" x="0" y="0" width="254" height="277">
<path d="M254 0H0V277H254V0Z" fill="white"/>
</mask>
<g mask="url(#mask0_555_25863)">
<path d="M43.4161 61.2616C38.4122 63.7387 33.3009 66.3007 29.4559 70.3597C25.611 74.4187 23.2395 80.3606 24.8665 85.7238C26.4935 91.087 33.086 94.8296 38.7883 91.9204C27.2993 102.153 20.9525 117.949 22.142 133.336C22.5181 138.159 26.0561 142.581 30.6685 143.97C35.281 145.359 40.6609 143.63 43.8151 139.703C40.0776 155.46 44.2756 172.9 54.7668 185.201C57.0999 187.94 61.0677 189.152 64.5213 188.179C67.9748 187.207 70.7454 184.105 71.2673 179.776C74.3064 188.48 81.0678 195.796 90.4462 200.079C103.186 209.015 119.794 212.163 134.898 208.505C150.001 204.848 163.363 194.438 170.784 180.478C169.971 184.159 171.889 188.272 175.22 190.008C178.551 191.744 182.994 190.942 185.519 188.148C194.077 178.68 199.18 166.133 199.48 152.883C199.848 156.811 203.102 160.275 206.985 160.877C210.861 161.479 215.005 159.157 216.533 155.522C224.706 136.083 222.45 112.578 211.513 94.2354C214.568 96.8359 219.441 96.944 222.611 94.4901C225.78 92.0361 226.916 87.2672 225.205 83.6326C220.661 74.0097 213.639 65.583 205.166 60.1813C199.257 64.2712 191.882 66.1772 184.744 65.4673C177.607 64.7496 170.753 61.4237 165.757 56.238C162.519 52.8812 161.536 47.5104 163.746 42.9806C161.298 37.4554 161.713 30.7418 164.775 25.5407C162.127 25.1857 159.38 25.6487 156.694 26.1117C160.523 23.5806 164.529 20.8566 166.548 16.7204C168.558 12.5765 167.63 6.61918 163.447 4.73629C152.495 -0.187008 139.909 -1.32137 128.259 1.5647C116.617 4.45077 105.987 11.3341 98.2666 20.548C98.0977 16.2729 94.3449 12.4453 90.0931 12.2138C85.8414 11.9901 81.7047 15.3931 82.3648 19.5525C90.4538 28.666 93.0479 42.3555 88.8575 53.8227C84.6672 65.2898 73.8766 74.0329 61.981 75.7614C54.0454 73.8786 47.0231 68.3996 43.4161 61.2616Z" fill="#AF4523"/>
<path d="M126.814 204C113.415 204 112 189.037 112 189.037C112 189.037 117.133 188.324 118.423 185.446C119.139 183.845 119.17 180.39 119.053 177.635C118.96 175.426 118.766 173.657 118.766 173.657C118.766 173.657 130.384 169.087 133.354 170.165C134.054 170.415 134.272 170.977 133.751 171.987C133.735 172.009 133.728 172.04 133.712 172.062C132.374 174.666 131.877 176.8 131.729 178.72C131.574 180.671 131.783 182.395 131.861 184.194C132.017 187.777 138.969 188.377 138.969 188.377C138.969 188.377 140.221 204 126.814 204Z" fill="#F09915"/>
<path d="M170.879 41.1746C170.879 41.1746 172.29 29.0878 183.168 25.8657C194.047 22.6436 198.723 28.6116 199.896 40.508C201.069 52.4043 192.13 56.1026 182.616 59.3564C173.102 62.6102 167 52.4678 167 52.4678L170.879 41.1746Z" fill="#F2F2F2"/>
<path d="M170.879 41.1746C170.879 41.1746 172.29 29.0878 183.168 25.8657C194.047 22.6436 198.723 28.6116 199.896 40.508C201.069 52.4043 192.13 56.1026 182.616 59.3564C173.102 62.6102 167 52.4678 167 52.4678L170.879 41.1746Z" fill="#F2F2F2"/>
<path d="M134 171.92C132.748 174.344 132.282 176.33 132.144 178.118C130.243 180.118 126.807 180.464 124.113 179.44C122.686 178.902 121.427 178.076 120.269 177.107C120.182 175.051 120 173.404 120 173.404C120 173.404 130.877 169.15 133.658 170.153C133.84 170.733 133.949 171.319 134 171.92Z" fill="#4D0E0E"/>
<path d="M165.336 40.9056C165.336 40.9056 163 41.9158 163 35.8701C163 29.8245 164.769 23.2891 174.008 16.792C183.247 10.2949 194.89 8.64954 203.562 15.0395C212.233 21.4295 218.894 44.9921 212.385 52.2775C205.875 59.5629 204.068 61.1929 193.839 64.7897C183.617 68.3864 175.301 67.713 170.167 61.8893C165.026 56.0579 165.336 40.9056 165.336 40.9056Z" fill="#F59338"/>
<path d="M170.879 41.1746C170.879 41.1746 172.29 29.0878 183.168 25.8657C194.047 22.6436 198.723 28.6116 199.896 40.508C201.069 52.4043 192.13 56.1026 182.616 59.3564C173.102 62.6102 167 52.4678 167 52.4678L170.879 41.1746Z" fill="#F4C879"/>
<path d="M52.757 71.3278C52.757 71.3278 39 62.0606 39 45.8028C39 29.545 47.3818 14 65.0298 14C82.6778 14 89.814 25.5591 90.9674 41.15C92.1132 56.7486 62.6537 77 62.6537 77L52.757 71.3278Z" fill="#F59338"/>
<path d="M62.7133 69C62.7133 69 50.6616 58.5188 51.0073 48.8035C51.361 39.0883 57.5276 27.8411 66.0739 30.3578C74.6202 32.8746 77 43.4418 77 43.4418L73.0524 64.2557L62.7133 69Z" fill="#F4C879"/>
<path d="M114.586 127.994C106.204 129.805 97.8304 131.624 89.449 133.436C77.9877 135.92 65.224 129.996 59.7386 119.647C54.2608 109.298 56.5438 95.44 65.0555 87.3914C59.8305 89.3252 54.0999 89.3175 50.7825 86.2295C47.4575 83.1415 47.0515 77.4395 49.8938 73.9082C54.9886 67.5793 63.0942 63.7652 71.2305 63.8722C67.4535 64.1932 63.2857 62.4352 61.3704 59.1714C59.4551 55.9077 59.9531 51.4285 62.5349 48.6616C70.6482 39.9633 84.2547 36.8676 96.3212 41.2932C96.0837 40.3607 95.8538 39.4282 95.6163 38.4881C95.2792 35.1708 98.1905 31.884 101.531 31.8076C104.871 31.7312 107.928 34.8879 106.687 39.7263C115.482 26.0062 134.773 20.1512 149.743 26.6559C152.67 27.9247 154.731 30.9897 154.792 34.1771C154.861 37.3644 152.93 40.5059 149.345 42.7684C153.298 42.3098 157.106 41.0257 160.998 40.1543C164.89 39.283 169.011 38.8549 172.804 40.0932C176.588 41.3314 179.929 44.5799 180.235 48.5393C180.542 52.4986 176.902 56.5956 173.654 55.3344C178.864 56.3357 184.135 57.3523 188.931 59.6148C193.727 61.8773 198.078 65.5461 200.024 70.4609C201.97 75.3757 201.035 81.6128 196.952 84.9913C192.869 88.3697 185.721 87.6512 182.48 83.3938C188.609 94.4463 187.521 109.068 179.837 119.104C172.145 129.133 158.286 134.009 145.989 131.005C140.565 129.683 135.562 127 130.192 125.487C124.813 123.989 118.585 123.828 114.586 127.994Z" fill="#D15933"/>
<path d="M172 145.278C171.563 146.34 171.019 147.365 170.383 148.337C160.003 164.104 141.137 174.12 122.042 173.999C102.939 173.878 84.2032 163.636 74.0307 147.742C74.023 147.727 74.0153 147.712 74 147.697C74.1227 147.614 74.2453 147.524 74.3756 147.433C78.1089 144.825 84.0882 142.12 93.2796 141.434C112.253 140.01 122.463 133.724 124.395 123C124.395 123 123.751 135.518 147.684 140.567C160.647 143.303 167.469 143.846 171.839 145.217C171.893 145.24 171.946 145.263 172 145.278Z" fill="#F09915"/>
<path d="M84.5054 142.313C84.5054 142.313 78.1645 146.474 82.5391 150.325C86.9137 154.177 92.683 153.349 99.3288 151.097C105.975 148.838 105.883 140.372 96.7604 140.029C87.6454 139.695 84.5054 142.313 84.5054 142.313Z" fill="#E66000"/>
<path d="M163.495 142.313C163.495 142.313 169.836 146.474 165.461 150.325C161.086 154.177 155.317 153.349 148.671 151.097C142.025 148.838 142.117 140.372 151.24 140.029C160.362 139.695 163.495 142.313 163.495 142.313Z" fill="#E66000"/>
<path d="M179.671 152.443C177.296 148.274 175.386 146.48 171.817 145.305C171.764 145.289 171.711 145.267 171.657 145.251C167.32 143.854 160.547 143.305 147.678 140.541C123.92 135.434 124.559 122.746 124.559 122.746C122.642 133.609 112.505 139.976 93.6705 141.419C84.5462 142.114 78.6104 144.854 74.9044 147.496C74.7826 147.587 74.6532 147.679 74.5315 147.763C70.8711 150.473 69.5622 153 69.5622 153C64.7603 148.603 58.3831 138.449 67.9945 121.769C77.5983 105.088 71.8375 104.691 77.6972 80.2464C83.5569 55.8094 113.175 53.2825 113.175 53.2825C113.175 53.2825 113.456 51.7786 114.096 63.4512C114.742 75.1162 122.611 78.9333 129.757 76.582C136.903 74.2383 130.845 66.169 130.845 66.169C134.429 69.4593 140.495 68.9326 141.415 62.7794C142.344 56.6263 134.97 52 134.97 52C161.262 54.9621 170.851 74.0475 172.122 85.6514C173.392 97.2477 169.489 100.309 178.643 120.227C187.806 140.129 179.671 152.443 179.671 152.443Z" fill="#F59338"/>
<path d="M172.273 145.739C167.927 144.332 161.139 143.779 148.244 140.995C124.435 135.851 125.076 123.072 125.076 123.072C123.154 134.013 112.996 140.426 94.1216 141.879C84.978 142.579 79.0296 145.34 75.3157 148C73.6151 143.663 69.0166 129.046 80.837 121.987C94.808 113.645 114.971 114.114 114.971 114.114C114.971 114.114 137.216 113.206 148.129 116.52C159.042 119.834 168.796 121.934 171.74 130.792C173.684 136.658 172.975 142.487 172.273 145.739Z" fill="#F4C879"/>
<path d="M120.883 109.051C120.883 109.051 113.341 108.88 115.336 112.989C117.331 117.098 121.019 123.663 124.492 123.985C127.965 124.307 129.825 119.375 132.527 113.769C135.229 108.164 125.684 109.051 120.883 109.051Z" fill="#211919"/>
<path d="M123.676 142C123.676 142 135.369 142.23 138.234 144.565C141.099 146.9 135.728 160.506 125.449 159.985C115.163 159.465 109.672 155.22 107.285 148.416C104.907 141.613 118.013 142.327 123.676 142Z" fill="#4D0E0E"/>
<path d="M99.9832 90.3971C99.9832 90.3971 98 91.4447 98 94.7167C98 97.9888 98.518 102.863 100.886 103.819C103.254 104.776 104.897 101.731 104.993 99.4995C105.082 97.2752 104.364 87.9829 99.9832 90.3971Z" fill="#211919"/>
<path d="M102 80.0873C102 80.0873 98.5792 77.505 94.6493 80.2995C90.7193 83.087 90.5045 86.9427 91.5069 86.9993C92.5093 87.0559 94.2038 83.4973 97.1632 83.4973C100.123 83.4973 102 83.8015 102 80.0873Z" fill="#211919"/>
<path d="M139 80.0873C139 80.0873 142.421 77.505 146.351 80.2995C150.281 83.087 150.495 86.9427 149.493 86.9993C148.491 87.0559 146.796 83.4973 143.837 83.4973C140.877 83.4902 139 83.8015 139 80.0873Z" fill="#211919"/>
<path d="M144.734 90.3971C144.734 90.3971 147 91.4447 147 94.7167C147 97.9888 146.408 102.863 143.702 103.819C140.996 104.776 139.119 101.731 139.009 99.4995C138.899 97.2752 139.728 87.9829 144.734 90.3971Z" fill="#211919"/>
<path d="M88 123.115C88 123.115 60.1526 106.523 33 128" stroke="#4D0E0E" stroke-width="3" stroke-miterlimit="10"/>
<path d="M86 128.202C64.5675 126.249 42.5385 138.632 33 158" stroke="#4D0E0E" stroke-width="3" stroke-miterlimit="10"/>
<path d="M86 134C61.3406 142.986 43.4753 167.916 43 194" stroke="#4D0E0E" stroke-width="3" stroke-miterlimit="10"/>
<path d="M153 123C160.086 114.671 171.336 109.139 183.169 108.159C195.002 107.179 207.247 110.774 216 117.792" stroke="#4D0E0E" stroke-width="3" stroke-miterlimit="10"/>
<path d="M155 125.442C168.06 122.194 183.149 122.186 196.217 125.419C209.285 128.651 220.188 135.085 226 143" stroke="#4D0E0E" stroke-width="3" stroke-miterlimit="10"/>
<path d="M157 134.852C170.68 132.2 185.42 135.824 196.373 144.536C207.327 153.249 214.301 166.908 215 181" stroke="#4D0E0E" stroke-width="3" stroke-miterlimit="10"/>
<path d="M69.3277 207C69.3277 207 62.8873 225.861 53.8979 255.105C44.9085 284.349 26.7704 315.65 19.1541 327.145L-2.03348 339.676C-2.03348 339.676 -7.08574 344.162 -0.994204 344.894L2.98086 345.138C2.98086 345.138 2.00985 347.438 0.181635 352.047C-1.64658 356.655 -1.32039 359.542 5.9849 363.031C13.2902 366.513 17.1287 367.076 19.9734 363.953C22.8257 360.822 28.2042 345.351 29.691 334.884C29.691 334.884 51.1973 305.465 63.6762 288.904C76.1551 272.344 78.4612 266.021 81.5791 261.39C84.7121 256.766 69.3277 207 69.3277 207Z" fill="#F09915"/>
<path d="M180.818 207C180.818 207 187.334 225.861 196.428 255.105C205.522 284.349 223.871 315.65 231.576 327.145L253.011 339.676C253.011 339.676 258.122 344.162 251.959 344.894L247.938 345.138C247.938 345.138 248.92 347.438 250.77 352.047C252.619 356.655 252.289 359.542 244.899 363.031C237.508 366.513 233.625 367.076 230.747 363.953C227.862 360.822 222.421 345.351 220.917 334.884C220.917 334.884 199.16 305.465 186.536 288.904C173.911 272.344 171.578 266.021 168.424 261.39C165.262 256.766 180.818 207 180.818 207Z" fill="#F09915"/>
<path d="M112.943 197C120.133 201.422 129.666 201.614 137.023 197.485C142.243 219.062 146.929 240.84 148.953 262.963C150.977 285.08 150.292 307.627 144.898 329.158C143.042 336.553 140.204 344.411 133.805 348.447C127.369 352.514 118.589 351.467 112.335 347.107C106.088 342.747 102.147 335.598 100.2 328.172C98.2442 320.746 98.0768 312.973 98.0235 305.285C97.742 268.363 99.8267 230.802 112.943 197Z" fill="white"/>
<path d="M131.758 250.576C129.372 287.788 129.449 326.151 131.781 364C143.726 363.586 159.009 358.2 169.095 352.391C172.046 315.233 174.99 278.074 177.941 240.916C178.793 230.174 179.653 219.394 182 207.946C181.574 205.054 178.53 203.105 175.602 203.005C172.673 202.906 169.9 204.218 167.36 205.683C150.93 215.189 133.059 230.274 131.758 250.576Z" fill="#03856D"/>
<path d="M133.05 244.873C133.843 230.759 134.643 216.645 135.436 202.539C135.72 197.496 136.101 192.155 138.973 188.035C142.069 183.588 147.574 181.436 152.906 181.062C163.451 180.33 174.176 186.105 179.531 195.398C180.959 197.877 182.044 200.654 181.999 203.53C181.931 207.94 179.284 211.831 176.569 215.264C164.895 230.011 149.877 241.997 133.027 250C133.027 248.352 132.953 246.712 133.05 244.873Z" fill="#045345"/>
<path d="M119.242 250.576C121.628 287.788 121.551 326.151 119.219 364C107.274 363.586 91.991 358.2 81.9053 352.391C78.954 315.233 76.0104 278.074 73.059 240.916C72.207 230.174 71.3471 219.394 69 207.946C69.426 205.054 72.4703 203.105 75.3984 203.005C78.3265 202.906 81.0997 204.218 83.6405 205.683C100.063 215.189 117.941 230.274 119.242 250.576Z" fill="#03856D"/>
<path d="M119.941 244.873C119.1 230.759 118.251 216.645 117.41 202.539C117.108 197.496 116.704 192.155 113.656 188.035C110.371 183.588 104.53 181.436 98.8717 181.062C87.6822 180.33 76.3023 186.105 70.6203 195.398C69.1045 197.877 67.9538 200.654 68.0014 203.53C68.0728 207.94 70.8821 211.831 73.7628 215.264C86.1506 230.011 102.086 241.997 119.965 250C119.973 248.352 120.052 246.712 119.941 244.873Z" fill="#045345"/>
</g>
</g>
<defs>
<clipPath id="clip0_555_25863">
<rect width="254" height="277" fill="white"/>
</clipPath>
</defs>
</svg>
