<svg width="254" height="277" viewBox="0 0 254 277" fill="none" xmlns="http://www.w3.org/2000/svg">
<g clip-path="url(#clip0_556_26376)">
<mask id="mask0_556_26376" style="mask-type:luminance" maskUnits="userSpaceOnUse" x="0" y="0" width="254" height="277">
<path d="M254 0H0V277H254V0Z" fill="white"/>
</mask>
<g mask="url(#mask0_556_26376)">
<path d="M26.6651 84.4312C20.4348 87.5216 14.0708 90.718 9.28337 95.7821C4.49599 100.846 1.54328 108.259 3.56908 114.951C5.59488 121.642 13.8032 126.311 20.903 122.682C6.59821 135.448 -1.3043 155.155 0.176832 174.353C0.64506 180.37 5.0502 185.887 10.7932 187.62C16.5361 189.353 23.2346 187.196 27.162 182.296C22.5084 201.955 27.7353 223.714 40.7979 239.06C43.7028 242.478 48.6431 243.989 52.9431 242.776C57.2432 241.563 60.6928 237.693 61.3426 232.292C65.1266 243.152 73.5452 252.279 85.2222 257.622C101.085 268.771 121.763 272.699 140.569 268.135C159.374 263.572 176.01 250.584 185.251 233.168C184.238 237.76 186.627 242.892 190.774 245.058C194.921 247.224 200.454 246.223 203.598 242.738C214.252 230.925 220.607 215.27 220.979 198.74C221.438 203.64 225.49 207.963 230.325 208.714C235.15 209.465 240.31 206.567 242.212 202.032C252.389 177.78 249.579 148.455 235.963 125.57C239.766 128.814 245.834 128.949 249.78 125.888C253.727 122.826 255.141 116.876 253.01 112.342C247.353 100.336 238.61 89.8226 228.06 83.0833C220.702 88.1859 211.519 90.564 202.633 89.6782C193.746 88.7829 185.213 84.6334 178.992 78.1636C174.959 73.9756 173.736 67.2748 176.488 61.6234C173.44 54.7301 173.956 46.3541 177.769 39.8651C174.472 39.4222 171.051 39.9999 167.707 40.5775C172.475 37.4197 177.463 34.0211 179.976 28.8607C182.48 23.6907 181.323 16.2582 176.116 13.9091C162.48 7.76669 146.808 6.35143 132.303 9.95215C117.807 13.5529 104.572 22.1407 94.9594 33.636C94.7491 28.3023 90.0764 23.527 84.7826 23.2382C79.4888 22.959 74.3383 27.2048 75.16 32.3941C85.2317 43.7642 88.4615 60.8436 83.2441 75.1502C78.0268 89.4568 64.5915 100.365 49.7802 102.521C39.8997 100.172 31.1562 93.3367 26.6651 84.4312Z" fill="#AF4523"/>
<path d="M185.702 58.8717C185.702 58.8717 187.412 44.0222 200.598 40.0636C213.784 36.105 219.452 43.4371 220.874 58.0526C222.296 72.6682 211.461 77.2117 199.929 81.2093C188.397 85.2069 181 72.7461 181 72.7461L185.702 58.8717Z" fill="#F2F2F2"/>
<path d="M185.702 58.8717C185.702 58.8717 187.412 44.0222 200.598 40.0636C213.784 36.105 219.452 43.4371 220.874 58.0526C222.296 72.6682 211.461 77.2117 199.929 81.2093C188.397 85.2069 181 72.7461 181 72.7461L185.702 58.8717Z" fill="#F2F2F2"/>
<path d="M177.92 58.848C177.92 58.848 175 60.0926 175 52.6436C175 45.1945 177.211 37.142 188.76 29.1366C200.309 21.1312 214.862 19.1039 225.702 26.9773C236.542 34.8507 244.868 63.8832 236.731 72.8598C228.594 81.8364 226.335 83.8448 213.549 88.2765C200.772 92.7083 190.376 91.8785 183.959 84.7029C177.533 77.5178 177.92 58.848 177.92 58.848Z" fill="#F59338"/>
<path d="M185.702 58.8717C185.702 58.8717 187.412 44.0222 200.598 40.0636C213.784 36.105 219.452 43.4371 220.874 58.0526C222.296 72.6682 211.461 77.2117 199.929 81.2093C188.397 85.2069 181 72.7461 181 72.7461L185.702 58.8717Z" fill="#F4C879"/>
<path d="M37.9317 96.9772C37.9317 96.9772 21 85.5036 21 65.3749C21 45.2461 31.3161 26 53.0367 26C74.7573 26 83.5403 40.3112 84.9599 59.6143C86.3701 78.9269 50.1122 104 50.1122 104L37.9317 96.9772Z" fill="#F59338"/>
<path d="M50.8668 93C50.8668 93 35.5705 80.1 36.0093 68.1428C36.4583 56.1856 44.285 42.3429 55.1323 45.4404C65.9795 48.5379 69 61.5437 69 61.5437L63.9896 87.1609L50.8668 93Z" fill="#F4C879"/>
<path d="M115.688 166.574C105.28 168.814 94.8809 171.063 84.4726 173.303C70.2397 176.374 54.3893 169.05 47.5773 156.255C40.7748 143.459 43.61 126.326 54.18 116.375C47.6915 118.766 40.575 118.756 36.4554 114.938C32.3264 111.12 31.8221 104.071 35.3518 99.7046C41.6786 91.8799 51.7444 87.1642 61.8483 87.2965C57.1579 87.6935 51.9823 85.5199 49.6038 81.4847C47.2253 77.4495 47.8437 71.9117 51.0499 68.4907C61.1252 57.7364 78.0221 53.9091 93.0067 59.3807C92.7117 58.2278 92.4263 57.0749 92.1314 55.9125C91.7127 51.8111 95.3281 47.7475 99.4762 47.653C103.624 47.5585 107.42 51.4615 105.879 57.4434C116.801 40.4803 140.757 33.2415 159.348 41.2836C162.982 42.8523 165.541 46.6419 165.618 50.5826C165.703 54.5233 163.306 58.4073 158.853 61.2046C163.762 60.6376 168.491 59.05 173.324 57.9726C178.157 56.8953 183.275 56.3661 187.985 57.897C192.685 59.428 196.833 63.4443 197.214 68.3395C197.594 73.2347 193.075 78.3 189.041 76.7407C195.51 77.9787 202.056 79.2355 208.012 82.0328C213.968 84.8301 219.372 89.3661 221.788 95.4426C224.205 101.519 223.044 109.23 217.973 113.407C212.902 117.584 204.026 116.696 200.001 111.432C207.612 125.097 206.261 143.175 196.719 155.584C187.167 167.982 169.956 174.011 154.686 170.297C147.95 168.663 141.737 165.346 135.068 163.474C128.389 161.622 120.654 161.424 115.688 166.574Z" fill="#D15933"/>
<path d="M187 188.956C186.456 190.29 185.778 191.576 184.986 192.796C172.065 212.581 148.579 225.15 124.807 224.999C101.026 224.847 77.702 211.995 65.0382 192.049C65.0286 192.03 65.0191 192.011 65 191.992C65.1527 191.888 65.3054 191.775 65.4676 191.661C70.1151 188.389 77.5588 184.994 89.0011 184.133C112.62 182.345 125.332 174.458 127.737 161C127.737 161 126.935 176.709 156.729 183.045C172.867 186.478 181.36 187.159 186.8 188.881C186.866 188.909 186.933 188.937 187 188.956Z" fill="#F09915"/>
<path d="M77.4199 184.847C77.4199 184.847 69.4248 189.969 74.9406 194.708C80.4564 199.448 87.7308 198.43 96.1102 195.658C104.49 192.877 104.374 182.457 92.8718 182.036C81.3789 181.625 77.4199 184.847 77.4199 184.847Z" fill="#E66000"/>
<path d="M176.58 184.847C176.58 184.847 184.575 189.969 179.059 194.708C173.544 199.448 166.269 198.43 157.89 195.658C149.51 192.877 149.626 182.457 161.128 182.036C172.631 181.625 176.58 184.847 176.58 184.847Z" fill="#E66000"/>
<path d="M195.866 198.305C192.918 193.105 190.546 190.867 186.115 189.4C186.048 189.381 185.982 189.352 185.916 189.333C180.53 187.59 172.121 186.905 156.142 183.457C126.642 177.086 127.436 161.257 127.436 161.257C125.055 174.81 112.469 182.752 89.0826 184.552C77.7532 185.419 70.3829 188.838 65.7812 192.133C65.6301 192.248 65.4694 192.362 65.3182 192.467C60.7732 195.848 59.148 199 59.148 199C53.1857 193.514 45.2674 180.848 57.2015 160.038C69.1262 139.229 61.9733 138.733 69.249 108.238C76.5248 77.7524 113.3 74.6 113.3 74.6C113.3 74.6 113.65 72.7238 114.444 87.2857C115.247 101.838 125.017 106.6 133.89 103.667C142.762 100.743 135.241 90.6762 135.241 90.6762C139.692 94.781 147.222 94.1238 148.366 86.4476C149.519 78.7714 140.362 73 140.362 73C173.009 76.6952 184.915 100.505 186.493 114.981C188.071 129.448 183.223 133.267 194.59 158.114C205.967 182.943 195.866 198.305 195.866 198.305Z" fill="#F59338"/>
<path d="M187.092 189.207C181.658 187.469 173.174 186.785 157.055 183.347C127.294 176.992 128.095 161.206 128.095 161.206C125.693 174.722 112.995 182.644 89.402 184.439C77.9725 185.304 70.5371 188.714 65.8947 192C63.7689 186.643 58.0208 168.586 72.7963 159.867C90.2599 149.561 115.464 150.14 115.464 150.14C115.464 150.14 143.271 149.02 156.912 153.113C170.553 157.207 182.745 159.8 186.425 170.742C188.855 177.99 187.969 185.19 187.092 189.207Z" fill="#F4C879"/>
<path d="M123.191 144.062C123.191 144.062 113.972 143.855 116.411 148.787C118.849 153.718 123.356 161.595 127.601 161.982C131.846 162.369 134.119 156.45 137.422 149.723C140.725 142.996 129.058 144.062 123.191 144.062Z" fill="#211919"/>
<path d="M126.845 184C126.845 184 141.461 184.295 145.042 187.278C148.624 190.261 141.91 207.646 129.061 206.981C116.204 206.316 109.34 200.892 106.357 192.199C103.383 183.506 119.766 184.418 126.845 184Z" fill="#4D0E0E"/>
<path d="M96.5498 120.482C96.5498 120.482 94 121.754 94 125.727C94 129.701 94.666 135.619 97.7106 136.78C100.755 137.942 102.867 134.245 102.991 131.535C103.105 128.834 102.182 117.551 96.5498 120.482Z" fill="#211919"/>
<path d="M100 108.223C100 108.223 95.3353 105.318 89.9763 108.462C84.6173 111.598 84.3244 115.936 85.6912 115.999C87.0581 116.063 89.3688 112.059 93.4043 112.059C97.4398 112.059 100 112.402 100 108.223Z" fill="#211919"/>
<path d="M146 108.223C146 108.223 150.354 105.318 155.355 108.462C160.357 111.598 160.631 115.936 159.355 115.999C158.079 116.063 155.923 112.059 152.156 112.059C148.39 112.052 146 112.402 146 108.223Z" fill="#211919"/>
<path d="M152.451 120.482C152.451 120.482 155 121.754 155 125.727C155 129.701 154.334 135.619 151.29 136.78C148.246 137.942 146.134 134.245 146.01 131.535C145.887 128.834 146.819 117.551 152.451 120.482Z" fill="#211919"/>
<path d="M82 161.783C82 161.783 47.5704 140.666 14 168" stroke="#4D0E0E" stroke-width="3" stroke-miterlimit="10"/>
<path d="M80 168.249C53.3105 165.841 25.8781 181.113 14 205" stroke="#4D0E0E" stroke-width="3" stroke-miterlimit="10"/>
<path d="M80 174C49.0324 185.382 26.5968 216.961 26 250" stroke="#4D0E0E" stroke-width="3" stroke-miterlimit="10"/>
<path d="M163 161C171.886 151.005 185.993 144.366 200.832 143.191C215.67 142.015 231.024 146.329 242 154.75" stroke="#4D0E0E" stroke-width="3" stroke-miterlimit="10"/>
<path d="M165 164.052C181.371 159.992 200.286 159.983 216.667 164.023C233.048 168.064 246.714 176.107 254 186" stroke="#4D0E0E" stroke-width="3" stroke-miterlimit="10"/>
<path d="M169 175.088C185.746 171.702 203.79 176.328 217.198 187.45C230.607 198.573 239.144 216.01 240 234" stroke="#4D0E0E" stroke-width="3" stroke-miterlimit="10"/>
</g>
</g>
<defs>
<clipPath id="clip0_556_26376">
<rect width="254" height="277" fill="white"/>
</clipPath>
</defs>
</svg>
