<svg width="258" height="280" viewBox="0 0 258 280" fill="none" xmlns="http://www.w3.org/2000/svg">
<path d="M26.7937 74.6649C20.5373 77.6538 14.1394 80.737 9.32807 85.6297C4.51677 90.5225 1.54508 97.6794 3.58195 104.142C5.61882 110.604 13.8649 115.111 21.009 111.607C6.63511 123.94 -1.31083 142.971 0.177159 161.513C0.644567 167.328 5.07851 172.653 10.8461 174.33C16.6136 176.007 23.346 173.923 27.2997 169.193C22.6256 188.177 27.8786 209.201 41.0003 224.017C43.9249 227.319 48.8863 228.777 53.213 227.606C57.5397 226.435 61.0003 222.696 61.6564 217.482C65.46 227.971 73.9162 236.791 85.6571 241.946C101.6 252.718 122.381 256.513 141.283 252.104C160.185 247.696 176.9 235.158 186.193 218.327C185.177 222.765 187.574 227.722 191.742 229.81C195.91 231.899 201.472 230.934 204.632 227.572C215.339 216.165 221.729 201.037 222.098 185.072C222.561 189.806 226.634 193.983 231.484 194.703C236.334 195.424 241.519 192.628 243.427 188.245C253.65 164.828 250.837 136.496 237.145 114.395C240.97 117.525 247.067 117.658 251.034 114.703C255 111.745 256.424 106.003 254.276 101.625C248.59 90.0251 239.799 79.8708 229.207 73.3613C221.81 78.2927 212.586 80.5869 203.65 79.7292C194.713 78.8716 186.137 74.8579 179.889 68.6143C175.837 64.5663 174.611 58.0998 177.372 52.641C174.31 45.9815 174.825 37.8898 178.659 31.6205C175.348 31.1874 171.909 31.7448 168.543 32.3109C173.337 29.262 178.354 25.9816 180.871 20.9902C183.393 15.9988 182.226 8.8161 176.99 6.55196C163.29 0.621444 147.535 -0.746471 132.96 2.73122C118.384 6.20891 105.091 14.5022 95.4298 25.6042C95.2197 20.4499 90.5199 15.8358 85.2026 15.5614C79.8853 15.2869 74.7052 19.395 75.5328 24.4078C85.6529 35.3898 88.899 51.8863 83.6589 65.707C78.4187 79.5234 64.9111 90.0637 50.0269 92.1392C40.0913 89.8664 31.3048 83.267 26.7937 74.6649Z" fill="#1C1C1C"/>
<path d="M204.444 279.154L131.717 278.168L58.9858 279.154C58.9858 279.154 61.1384 251.015 81.6058 241.191C102.069 231.363 111.76 228.738 114.423 228.292C116.837 227.885 129.32 226.997 131.546 226.839C131.606 226.834 131.661 226.834 131.713 226.826H131.717C131.76 226.83 131.816 226.83 131.884 226.839C134.097 226.997 146.593 227.885 149.007 228.292C151.67 228.734 161.357 231.358 181.828 241.191C202.291 251.015 204.444 279.154 204.444 279.154Z" fill="#C7C7C7"/>
<path d="M131.227 247.259C114.674 247.259 112.933 228.927 112.933 228.927C112.933 228.927 119.267 228.052 120.862 224.527C121.75 222.568 121.784 218.335 121.638 214.956C121.523 212.246 121.287 210.085 121.287 210.085C121.287 210.085 135.639 204.493 139.306 205.81C140.168 206.118 140.438 206.809 139.799 208.039C139.782 208.069 139.769 208.104 139.752 208.129C138.105 211.32 137.487 213.931 137.307 216.286C137.114 218.67 137.372 220.788 137.47 222.988C137.663 227.379 146.252 228.112 146.252 228.112C146.252 228.112 147.783 247.259 131.227 247.259Z" fill="#8F8F8F"/>
<path d="M185.364 51.4103C185.364 51.4103 187.135 37.2508 200.763 33.4729C214.391 29.6951 220.248 36.6891 221.719 50.6256C223.19 64.562 211.985 68.9016 200.068 72.7095C188.151 76.5174 180.501 64.6392 180.501 64.6392L185.364 51.4103Z" fill="#F2F2F2"/>
<path d="M185.364 51.4103C185.364 51.4103 187.135 37.2508 200.763 33.4729C214.391 29.6951 220.248 36.6891 221.719 50.6256C223.19 64.562 211.985 68.9016 200.068 72.7095C188.151 76.5174 180.501 64.6392 180.501 64.6392L185.364 51.4103Z" fill="#F2F2F2"/>
<path d="M139.747 208.134C138.101 211.324 137.483 213.935 137.303 216.29C134.799 218.918 130.258 219.373 126.711 218.035C124.829 217.332 123.169 216.242 121.639 214.965C121.523 212.254 121.287 210.093 121.287 210.093C121.287 210.093 135.639 204.501 139.306 205.818C139.533 206.564 139.683 207.345 139.747 208.134Z" fill="#3D3D3D"/>
<path d="M178.024 51.0501C178.024 51.0501 175.057 52.2808 175.057 44.9309C175.057 37.581 177.304 29.6479 189.036 21.7534C200.773 13.8589 215.562 11.8606 226.574 19.6222C237.586 27.3838 246.047 56.0157 237.779 64.8665C229.512 73.7215 227.213 75.7026 214.225 80.0723C201.236 84.4419 190.674 83.6271 184.156 76.5474C177.634 69.4677 178.024 51.0501 178.024 51.0501Z" fill="#D4D4D4"/>
<path d="M185.364 51.4103C185.364 51.4103 187.135 37.2508 200.763 33.4729C214.391 29.6951 220.248 36.6891 221.719 50.6256C223.19 64.562 211.985 68.9016 200.068 72.7095C188.151 76.5174 180.501 64.6392 180.501 64.6392L185.364 51.4103Z" fill="#F2F2F2"/>
<path d="M38.2393 87.2164C38.2393 87.2164 21.0567 75.9728 21.0567 56.2516C21.0567 36.5304 31.5198 17.6711 53.5609 17.6711C75.602 17.6711 84.517 31.6891 85.9493 50.6127C87.3815 69.5363 50.5892 94.0989 50.5892 94.0989L38.2393 87.2164Z" fill="#D4D4D4"/>
<path d="M50.7595 82.9841C50.7595 82.9841 36.3599 70.5141 36.7801 58.9576C37.2004 47.401 44.5631 34.0177 54.7818 37.0151C64.9962 40.0125 67.8306 52.5811 67.8306 52.5811L63.1137 77.3409L50.7595 82.9841Z" fill="#F2F2F2"/>
<path d="M115.816 155.998C105.314 158.207 94.8085 160.415 84.3068 162.624C69.9415 165.642 53.9381 158.434 47.0685 145.848C40.1989 133.263 43.0634 116.397 53.7366 106.607C47.1886 108.957 40.0059 108.949 35.8421 105.197C31.6783 101.445 31.1594 94.5063 34.7229 90.2096C41.1122 82.5081 51.2666 77.8726 61.4681 78.0055C56.7297 78.4 51.511 76.2517 49.1139 72.2851C46.7169 68.3186 47.3386 62.8598 50.5719 59.4979C60.7477 48.9147 77.7974 45.154 92.9174 50.5356C92.6215 49.3993 92.3299 48.2629 92.034 47.1265C91.6095 43.0871 95.2587 39.0905 99.4482 39.0005C103.638 38.9104 107.467 42.7483 105.91 48.636C116.94 31.9465 141.116 24.8196 159.877 32.7312C163.548 34.2792 166.125 38.0014 166.206 41.8778C166.288 45.7543 163.873 49.5751 159.384 52.3281C164.345 51.7706 169.114 50.2054 173.985 49.1505C178.856 48.0957 184.036 47.5682 188.779 49.0734C193.522 50.5785 197.711 54.5322 198.097 59.3521C198.483 64.1719 193.92 69.1591 189.847 67.6239C196.378 68.8374 202.986 70.081 208.998 72.8254C215.01 75.5741 220.46 80.0381 222.908 86.0243C225.353 92.0106 224.173 99.5921 219.058 103.704C213.938 107.812 204.98 106.938 200.919 101.762C208.599 115.205 207.239 132.997 197.6 145.201C187.96 157.405 170.584 163.335 155.173 159.682C148.376 158.07 142.107 154.806 135.37 152.967C128.638 151.127 120.825 150.938 115.816 155.998Z" fill="#363636"/>
<path d="M188.675 176.954C188.122 178.267 187.444 179.532 186.647 180.732C173.645 200.188 150.013 212.546 126.085 212.4C102.149 212.255 78.684 199.613 65.9396 180.003C65.9267 179.986 65.9181 179.965 65.9053 179.948C66.0596 179.845 66.214 179.733 66.3727 179.626C71.0468 176.41 78.5425 173.074 90.0561 172.225C113.83 170.471 126.613 162.714 129.035 149.48C129.035 149.48 128.234 164.926 158.216 171.153C174.456 174.527 183.002 175.196 188.473 176.894C188.542 176.907 188.611 176.933 188.675 176.954Z" fill="#8F8F8F"/>
<path d="M76.1639 171.882C76.1639 171.882 68.1751 176.744 73.6897 181.247C79.2042 185.75 86.4727 184.785 94.8517 182.148C103.226 179.51 103.111 169.613 91.6142 169.219C80.1176 168.82 76.1639 171.882 76.1639 171.882Z" fill="#BDBDBD"/>
<path d="M176.321 173.245C176.321 173.245 184.31 178.108 178.796 182.61C173.281 187.113 166.013 186.148 157.634 183.511C149.259 180.874 149.375 170.977 160.871 170.582C172.368 170.179 176.321 173.245 176.321 173.245Z" fill="#BDBDBD"/>
<path d="M198.58 185.651C195.583 180.574 193.173 178.391 188.675 176.955C188.61 176.933 188.542 176.907 188.469 176.886C182.997 175.188 174.451 174.519 158.212 171.144C128.229 164.922 129.031 149.472 129.031 149.472C126.608 162.705 113.821 170.462 90.0516 172.216C78.5379 173.061 71.0422 176.401 66.3681 179.618C66.2095 179.725 66.0508 179.841 65.9007 179.939C61.2867 183.245 59.6229 186.324 59.6229 186.324C53.5637 180.968 45.5191 168.601 57.6417 148.28C69.7643 127.958 62.4916 127.478 69.8844 97.701C77.2729 67.9327 114.657 64.8538 114.657 64.8538C114.657 64.8538 115.009 63.027 115.819 77.238C116.634 91.4489 126.569 96.093 135.583 93.2285C144.597 90.3726 136.955 80.5484 136.955 80.5484C141.479 84.5535 149.129 83.9103 150.3 76.4189C151.475 68.9275 142.165 63.2886 142.165 63.2886C175.351 66.8992 187.448 90.1453 189.052 104.275C190.66 118.4 185.725 122.122 197.285 146.384C208.846 170.651 198.58 185.651 198.58 185.651Z" fill="#D4D4D4"/>
<path d="M188.469 176.886C182.997 175.188 174.451 174.519 158.212 171.144C128.229 164.922 129.031 149.472 129.031 149.472C126.608 162.705 113.821 170.462 90.0515 172.216C78.5378 173.061 71.0421 176.401 66.368 179.617C64.2282 174.377 58.4306 156.693 73.3234 148.159C90.9177 138.074 116.308 138.635 116.308 138.635C116.308 138.635 144.318 137.533 158.062 141.543C171.805 145.548 184.091 148.091 187.791 158.803C190.248 165.908 189.348 172.958 188.469 176.886Z" fill="#F2F2F2"/>
<path d="M124.216 132.263C124.216 132.263 115.104 132.04 117.518 137.379C119.932 142.718 124.384 151.243 128.582 151.659C132.78 152.075 135.027 145.672 138.29 138.391C141.549 131.11 130.018 132.263 124.216 132.263Z" fill="#211919"/>
<path d="M97.41 110.205C97.41 110.205 94.8372 111.487 94.8372 115.497C94.8372 119.506 95.5104 125.48 98.585 126.646C101.66 127.812 103.791 124.086 103.915 121.354C104.04 118.623 103.096 107.246 97.41 110.205Z" fill="#211919"/>
<path d="M100.297 97.6365C100.297 97.6365 96.1671 94.2445 91.4244 97.9152C86.686 101.582 86.4201 106.646 87.6251 106.723C88.8301 106.796 90.8798 102.118 94.4561 102.118C98.0324 102.118 100.297 102.521 100.297 97.6365Z" fill="#211919"/>
<path d="M147.809 97.6365C147.809 97.6365 151.939 94.2445 156.681 97.9152C161.424 101.586 161.686 106.646 160.481 106.723C159.276 106.796 157.226 102.118 153.65 102.118C150.073 102.118 147.809 102.521 147.809 97.6365Z" fill="#211919"/>
<path d="M152.989 110.205C152.989 110.205 155.562 111.487 155.562 115.497C155.562 119.506 154.888 125.48 151.814 126.646C148.739 127.812 146.608 124.086 146.484 121.354C146.359 118.623 147.303 107.246 152.989 110.205Z" fill="#211919"/>
<path d="M82.9806 150.055C82.9806 150.055 47.5691 128.541 13.0409 156.384" stroke="#8F8F8F" stroke-width="3" stroke-miterlimit="10"/>
<path d="M79.7427 156.418C53.1776 154.081 25.8706 168.888 14.0482 192.04" stroke="#8F8F8F" stroke-width="3" stroke-miterlimit="10"/>
<path d="M78.7089 163.168C48.3145 173.966 26.2949 203.914 25.7074 235.256" stroke="#8F8F8F" stroke-width="3" stroke-miterlimit="10"/>
<path d="M162.466 149.467C171.574 139.193 186.025 132.366 201.231 131.161C216.437 129.956 232.161 134.386 243.405 143.048" stroke="#8F8F8F" stroke-width="3" stroke-miterlimit="10"/>
<path d="M166.258 153.048C182.763 149.15 201.837 149.141 218.355 153.018C234.873 156.894 248.659 164.617 256 174.111" stroke="#8F8F8F" stroke-width="3" stroke-miterlimit="10"/>
<path d="M168.582 163.528C185.683 160.222 204.118 164.738 217.815 175.582C231.511 186.427 240.229 203.421 241.104 220.959" stroke="#8F8F8F" stroke-width="3" stroke-miterlimit="10"/>
<path d="M142.447 203.922C139.235 206.947 134.952 209.083 129.808 208.833C121.519 208.433 115.418 206.392 111.064 203.009C107.719 200.407 105.411 197.02 103.936 192.96C100.543 183.626 119.216 184.605 127.286 184.158C127.286 184.158 143.946 184.473 148.029 187.677C150.674 189.761 148.386 198.347 142.447 203.922Z" fill="#211919"/>
<path d="M142.47 203.878C139.262 206.93 134.985 209.085 129.847 208.833C121.568 208.43 115.475 206.37 111.127 202.958C114.563 199.465 119.216 197.159 124.092 196.627C130.028 195.977 136.211 197.961 140.655 201.947C141.301 202.526 141.919 203.176 142.47 203.878Z" fill="#4F4F4F"/>
</svg>
