<svg width="390" height="562" viewBox="0 0 390 562" fill="none" xmlns="http://www.w3.org/2000/svg">
<path d="M201.517 331C201.517 331 215.902 331.283 219.427 334.156C222.952 337.028 216.344 353.768 203.698 353.127C191.043 352.487 184.288 347.264 181.351 338.894C178.425 330.524 194.549 331.402 201.517 331Z" fill="#4D0E0E"/>
<path d="M182.74 343.061C182.572 343.061 182.463 342.945 182.463 342.771V338.324C182.463 338.136 182.586 338.006 182.76 338.006C182.935 338.006 183.058 338.136 183.058 338.324V340.04H183.071C183.297 339.633 183.71 339.383 184.213 339.383C185.108 339.383 185.713 340.108 185.713 341.222C185.713 342.34 185.112 343.061 184.203 343.061C183.683 343.061 183.276 342.808 183.044 342.398H183.03V342.771C183.03 342.941 182.911 343.061 182.74 343.061ZM184.086 342.538C184.715 342.538 185.105 342.036 185.105 341.222C185.105 340.416 184.715 339.906 184.086 339.906C183.485 339.906 183.054 340.433 183.054 341.222C183.054 342.015 183.485 342.538 184.086 342.538Z" fill="white"/>
<path d="M186.962 343.061C186.788 343.061 186.665 342.931 186.665 342.743V339.684C186.665 339.506 186.781 339.383 186.945 339.383C187.109 339.383 187.225 339.506 187.225 339.684V340.026H187.239C187.342 339.657 187.69 339.383 188.046 339.383C188.176 339.383 188.268 339.414 188.326 339.469C188.377 339.517 188.401 339.585 188.401 339.667C188.401 339.759 188.371 339.828 188.309 339.875C188.247 339.927 188.155 339.951 188.025 339.951C187.489 339.951 187.26 340.337 187.26 340.792V342.743C187.26 342.931 187.137 343.061 186.962 343.061Z" fill="white"/>
<path d="M190.494 343.061C189.445 343.061 188.83 342.384 188.83 341.236C188.83 340.115 189.462 339.383 190.443 339.383C191.352 339.383 191.992 340.063 191.992 341.038C191.992 341.253 191.868 341.383 191.663 341.383H189.442C189.442 342.101 189.835 342.545 190.471 342.545C190.894 342.545 191.154 342.395 191.431 341.991C191.492 341.906 191.561 341.872 191.653 341.872C191.81 341.872 191.916 341.974 191.916 342.131C191.916 342.179 191.899 342.241 191.872 342.306C191.643 342.788 191.144 343.061 190.494 343.061ZM189.445 340.918H191.376C191.363 340.303 190.983 339.899 190.433 339.899C189.879 339.899 189.483 340.306 189.445 340.918Z" fill="white"/>
<path d="M193.979 343.061C193.271 343.061 192.796 342.634 192.796 341.995C192.796 341.386 193.264 341.003 194.085 340.956L195.107 340.897V340.6C195.107 340.166 194.82 339.906 194.327 339.906C193.941 339.906 193.678 340.046 193.48 340.398C193.425 340.498 193.346 340.542 193.234 340.542C193.08 340.542 192.97 340.436 192.97 340.275C192.97 340.2 192.994 340.115 193.042 340.029C193.244 339.64 193.763 339.383 194.341 339.383C195.175 339.383 195.701 339.834 195.701 340.542V342.76C195.701 342.938 195.585 343.061 195.421 343.061C195.254 343.061 195.137 342.938 195.137 342.76V342.388H195.124C194.912 342.794 194.457 343.061 193.979 343.061ZM194.112 342.555C194.673 342.555 195.107 342.162 195.107 341.649V341.359L194.153 341.417C193.675 341.448 193.401 341.66 193.401 341.995C193.401 342.333 193.685 342.555 194.112 342.555Z" fill="white"/>
<path d="M196.998 342.179V339.934H196.701C196.53 339.934 196.434 339.845 196.434 339.688C196.434 339.534 196.53 339.445 196.701 339.445H196.998V338.836C196.998 338.648 197.121 338.519 197.296 338.519C197.47 338.519 197.593 338.648 197.593 338.836V339.445H198.051C198.222 339.445 198.317 339.534 198.317 339.688C198.317 339.845 198.222 339.934 198.051 339.934H197.593V342.049C197.593 342.35 197.699 342.494 197.996 342.514L198.047 342.518C198.242 342.531 198.331 342.61 198.331 342.75C198.331 342.931 198.229 343.027 197.897 343.027H197.859C197.285 343.027 196.998 342.747 196.998 342.179Z" fill="white"/>
<path d="M199.597 343.061C199.423 343.061 199.3 342.931 199.3 342.743V338.317C199.3 338.132 199.419 338.006 199.597 338.006C199.778 338.006 199.895 338.132 199.895 338.317V340.012H199.908C200.106 339.616 200.496 339.383 201.036 339.383C201.815 339.383 202.287 339.91 202.287 340.703V342.743C202.287 342.931 202.164 343.061 201.99 343.061C201.815 343.061 201.692 342.931 201.692 342.743V340.812C201.692 340.248 201.409 339.91 200.852 339.91C200.26 339.91 199.895 340.313 199.895 340.928V342.743C199.895 342.931 199.771 343.061 199.597 343.061Z" fill="white"/>
<path d="M204.883 343.061C203.833 343.061 203.218 342.384 203.218 341.236C203.218 340.115 203.85 339.383 204.831 339.383C205.741 339.383 206.38 340.063 206.38 341.038C206.38 341.253 206.257 341.383 206.052 341.383H203.83C203.83 342.101 204.223 342.545 204.859 342.545C205.283 342.545 205.542 342.395 205.819 341.991C205.881 341.906 205.949 341.872 206.041 341.872C206.199 341.872 206.305 341.974 206.305 342.131C206.305 342.179 206.288 342.241 206.26 342.306C206.031 342.788 205.532 343.061 204.883 343.061ZM203.833 340.918H205.765C205.751 340.303 205.371 339.899 204.821 339.899C204.267 339.899 203.871 340.306 203.833 340.918Z" fill="white"/>
<path d="M210.59 343.061C209.606 343.061 208.943 342.354 208.943 341.222C208.943 340.087 209.606 339.383 210.59 339.383C211.571 339.383 212.234 340.087 212.234 341.222C212.234 342.354 211.571 343.061 210.59 343.061ZM210.59 342.538C211.219 342.538 211.629 342.06 211.629 341.222C211.629 340.385 211.219 339.906 210.59 339.906C209.961 339.906 209.548 340.385 209.548 341.222C209.548 342.06 209.961 342.538 210.59 342.538Z" fill="white"/>
<path d="M214.399 343.061C213.623 343.061 213.169 342.559 213.169 341.752V339.701C213.169 339.513 213.292 339.383 213.466 339.383C213.64 339.383 213.763 339.513 213.763 339.701V341.646C213.763 342.224 214.033 342.535 214.584 342.535C215.161 342.535 215.51 342.138 215.51 341.533V339.701C215.51 339.513 215.633 339.383 215.807 339.383C215.982 339.383 216.105 339.513 216.105 339.701V342.76C216.105 342.931 215.995 343.061 215.824 343.061C215.653 343.061 215.541 342.931 215.541 342.76V342.422H215.527C215.315 342.832 214.946 343.061 214.399 343.061Z" fill="white"/>
<path d="M217.418 342.179V339.934H217.121C216.95 339.934 216.854 339.845 216.854 339.688C216.854 339.534 216.95 339.445 217.121 339.445H217.418V338.836C217.418 338.648 217.542 338.519 217.716 338.519C217.89 338.519 218.013 338.648 218.013 338.836V339.445H218.471C218.642 339.445 218.738 339.534 218.738 339.688C218.738 339.845 218.642 339.934 218.471 339.934H218.013V342.049C218.013 342.35 218.119 342.494 218.417 342.514L218.468 342.518C218.663 342.531 218.751 342.61 218.751 342.75C218.751 342.931 218.649 343.027 218.317 343.027H218.28C217.706 343.027 217.418 342.747 217.418 342.179Z" fill="white"/>
</svg>
