<svg width="390" height="454" viewBox="0 0 390 454" fill="none" xmlns="http://www.w3.org/2000/svg">
<g clip-path="url(#clip0_882_15072)">
<rect y="377" width="390" height="77" fill="#045345"/>
<g clip-path="url(#clip1_882_15072)">
<rect width="390" height="390" fill="#D2F0EB"/>
<path d="M68.14 128.044C60.3262 131.896 52.326 135.889 46.3141 142.196C40.3023 148.518 36.5896 157.746 39.1373 166.088C41.6849 174.429 51.9842 180.239 60.9165 175.719C42.9588 191.642 33.0167 216.201 34.8809 240.124C35.4712 247.628 41.0014 254.509 48.2093 256.669C55.4173 258.828 51.9985 277.277 56.9385 271.172C51.0975 295.67 69.507 301.672 85.8958 320.795C89.5464 325.051 95.7446 326.931 101.151 325.424C106.557 323.917 110.974 335.009 111.782 328.282C116.536 341.813 127.015 337.277 141.695 343.941C161.626 357.844 187.584 362.737 211.212 357.052C234.84 351.366 255.172 342.512 266.792 320.795C265.518 326.527 269.062 325.595 274.266 328.282C279.47 330.985 286.429 329.727 290.375 325.393C303.766 310.666 311.75 291.139 312.201 270.541C312.776 276.646 317.871 282.036 323.929 282.968C329.988 283.9 336.466 280.281 338.858 274.642C351.627 244.412 348.116 207.844 331.013 179.323C335.798 183.362 343.41 183.533 348.365 179.727C353.32 175.921 355.107 168.495 352.419 162.841C345.305 147.866 334.322 134.77 321.087 126.366C311.844 132.735 300.317 135.687 289.148 134.584C277.979 133.465 267.26 128.292 259.446 120.23C254.382 115.01 252.844 106.653 256.293 99.6158C252.471 91.0253 253.108 80.5706 257.908 72.4928C253.776 71.9335 249.473 72.6481 245.263 73.3782C251.26 69.448 257.52 65.2071 260.673 58.7603C263.827 52.3135 262.367 43.055 255.827 40.119C238.708 32.4606 219.01 30.7052 200.804 35.1791C182.597 39.6686 165.976 50.3718 153.905 64.71C153.641 58.0613 147.769 52.0961 141.121 51.7543C134.472 51.397 127.994 56.6943 129.035 63.1721C141.68 77.3395 145.734 98.6371 139.194 116.471C132.639 134.304 115.768 147.912 97.1583 150.584C84.7618 147.664 73.779 139.151 68.14 128.044Z" fill="#AF4523"/>
<path d="M266.298 98.0306C266.298 98.0306 268.519 79.7622 285.545 74.8844C302.571 70.0066 309.903 79.032 311.736 97.0209C313.569 115.01 299.572 120.602 284.675 125.526C269.778 130.451 260.224 115.103 260.224 115.103L266.298 98.0306Z" fill="#F2F2F2"/>
<path d="M266.298 98.0306C266.298 98.0306 268.519 79.7622 285.545 74.8844C302.571 70.0066 309.903 79.032 311.736 97.0209C313.569 115.01 299.572 120.602 284.675 125.526C269.778 130.451 260.224 115.103 260.224 115.103L266.298 98.0306Z" fill="#F2F2F2"/>
<path d="M257.132 97.5648C257.132 97.5648 253.42 99.1494 253.42 89.6734C253.42 80.1818 256.231 69.9447 270.896 59.7541C285.56 49.5635 304.046 46.9848 317.81 57.0045C331.573 67.0242 342.137 103.981 331.806 115.398C321.476 126.832 318.602 129.379 302.368 135.018C286.135 140.657 272.931 139.601 264.791 130.467C256.651 121.332 257.132 97.5648 257.132 97.5648Z" fill="#F59338"/>
<path d="M266.298 98.0306C266.298 98.0306 268.519 79.7622 285.545 74.8844C302.571 70.0066 309.903 79.032 311.736 97.0209C313.569 115.01 299.572 120.602 284.675 125.526C269.778 130.451 260.224 115.103 260.224 115.103L266.298 98.0306Z" fill="#F4C879"/>
<path d="M82.4326 144.246C82.4326 144.246 60.9641 129.737 60.9641 104.276C60.9641 78.815 74.0441 54.4882 101.587 54.4882C129.129 54.4882 140.267 72.5858 142.069 97.0058C143.871 121.426 97.8738 153.132 97.8738 153.132L82.4326 144.246Z" fill="#F59338"/>
<path d="M98.0917 138.778C98.0917 138.778 80.1029 122.684 80.6155 107.771C81.1437 92.8582 90.34 75.5839 103.109 79.452C115.879 83.3201 119.42 99.538 119.42 99.538L113.517 131.492L98.0917 138.778Z" fill="#F4C879"/>
<path d="M179.384 233.025C166.257 235.868 153.131 238.726 140.004 241.569C122.046 245.468 102.053 236.163 93.4629 219.914C84.8724 203.665 88.4608 181.901 101.789 169.272C93.6027 172.301 84.6238 172.301 79.4198 167.454C74.2158 162.607 73.5633 153.66 78.0217 148.114C86.0064 138.172 98.698 132.191 111.452 132.362C105.533 132.875 99.0087 130.094 96.0105 124.983C93.0124 119.857 93.7891 112.82 97.828 108.47C110.551 94.8153 131.848 89.9531 150.754 96.8969C150.381 95.4367 150.024 93.961 149.651 92.5007C149.123 87.2812 153.674 82.1237 158.925 82.015C164.16 81.9063 168.945 86.8462 167.003 94.458C180.782 72.9118 210.996 63.7155 234.453 73.9371C239.036 75.941 242.267 80.7412 242.36 85.7432C242.469 90.7453 239.44 95.6852 233.832 99.2271C240.03 98.5125 245.995 96.4931 252.085 95.126C258.174 93.759 264.636 93.091 270.571 95.0328C276.505 96.9746 281.74 102.07 282.221 108.299C282.703 114.513 277.002 120.96 271.906 118.971C280.062 120.54 288.326 122.14 295.845 125.682C303.364 129.224 310.168 134.987 313.228 142.723C316.288 150.444 314.812 160.231 308.412 165.543C302.012 170.841 290.812 169.722 285.748 163.027C295.348 180.379 293.655 203.339 281.6 219.091C269.561 234.842 247.844 242.501 228.581 237.778C220.084 235.697 212.254 231.487 203.835 229.11C195.415 226.733 185.644 226.485 179.384 233.025Z" fill="#D15933"/>
<path d="M270.446 260.07C269.763 261.763 268.908 263.394 267.914 264.948C251.665 290.067 222.134 306.005 192.231 305.819C162.311 305.633 132.998 289.306 117.06 264C117.044 263.985 117.028 263.954 117.013 263.923C117.199 263.798 117.401 263.643 117.603 263.503C123.444 259.356 132.811 255.037 147.196 253.95C176.898 251.682 192.883 241.677 195.912 224.59C195.912 224.59 194.902 244.52 232.371 252.567C252.675 256.917 263.347 257.787 270.182 259.977C270.275 260.008 270.369 260.039 270.446 260.07Z" fill="#F09915"/>
<path d="M131.6 255.285C131.6 255.285 121.611 261.561 128.508 267.371C135.405 273.18 144.478 271.938 154.948 268.536C165.418 265.134 165.263 252.364 150.909 251.852C136.555 251.339 131.6 255.285 131.6 255.285Z" fill="#E56000"/>
<path d="M255.006 255.285C255.006 255.285 264.994 261.561 258.097 267.371C251.2 273.18 242.128 271.938 231.658 268.536C221.187 265.134 221.343 252.364 235.696 251.852C250.05 251.339 255.006 255.285 255.006 255.285Z" fill="#E56000"/>
<path d="M282.826 271.287C279.082 264.731 276.069 261.919 270.445 260.071C270.367 260.04 270.274 260.009 270.181 259.978C263.346 257.787 252.658 256.917 232.37 252.568C194.901 244.536 195.911 224.59 195.911 224.59C192.882 241.663 176.913 251.682 147.195 253.95C132.81 255.038 123.443 259.356 117.602 263.504C117.4 263.644 117.214 263.783 117.012 263.923C111.249 268.195 109.167 272.157 109.167 272.157C101.602 265.244 91.5355 249.274 106.697 223.052C121.843 196.83 112.755 196.209 121.998 157.777C131.241 119.36 177.953 115.383 177.953 115.383C177.953 115.383 178.388 113.022 179.398 131.368C180.423 149.714 192.835 155.711 204.098 152.013C215.36 148.332 205.807 135.64 205.807 135.64C211.461 140.813 221.03 139.974 222.475 130.312C223.935 120.65 212.315 113.364 212.315 113.364C253.792 118.024 268.907 148.021 270.911 166.259C272.915 184.48 266.748 189.296 281.195 220.613C295.658 251.931 282.826 271.287 282.826 271.287Z" fill="#F59338"/>
<path d="M270.181 259.978C263.346 257.787 252.658 256.917 232.37 252.568C194.902 244.536 195.911 224.59 195.911 224.59C192.882 241.663 176.913 251.682 147.195 253.95C132.811 255.038 123.443 259.356 117.602 263.504C114.93 256.731 107.691 233.911 126.302 222.897C148.298 209.879 180.02 210.609 180.02 210.609C180.02 210.609 215.034 209.18 232.2 214.369C249.381 219.542 264.729 222.819 269.358 236.645C272.403 245.81 271.284 254.913 270.181 259.978Z" fill="#F4C879"/>
<path d="M189.884 202.39C189.884 202.39 178.498 202.11 181.511 208.992C184.525 215.873 190.086 226.887 195.337 227.431C200.588 227.975 203.399 219.71 207.469 210.312C211.555 200.898 197.139 202.39 189.884 202.39Z" fill="#211919"/>
<path d="M156.392 173.916C156.392 173.916 153.177 175.563 153.177 180.751C153.177 185.939 154.015 193.629 157.852 195.136C161.689 196.643 164.361 191.827 164.517 188.301C164.672 184.79 163.491 170.094 156.392 173.916Z" fill="#211919"/>
<path d="M159.995 157.698C159.995 157.698 154.838 153.318 148.904 158.056C142.97 162.794 142.644 169.318 144.166 169.427C145.673 169.52 148.236 163.477 152.694 163.477C157.153 163.477 159.995 164.005 159.995 157.698Z" fill="#211919"/>
<path d="M219.368 157.698C219.368 157.698 224.526 153.318 230.46 158.056C236.394 162.794 236.72 169.318 235.198 169.427C233.691 169.52 231.128 163.477 226.67 163.477C222.211 163.477 219.368 164.005 219.368 157.698Z" fill="#211919"/>
<path d="M225.846 173.916C225.846 173.916 229.062 175.563 229.062 180.751C229.062 185.939 228.223 193.629 224.37 195.136C220.533 196.643 217.861 191.827 217.706 188.301C217.566 184.79 218.731 170.094 225.846 173.916Z" fill="#211919"/>
<path d="M238.418 222.688C249.805 209.421 267.856 200.613 286.854 199.06C305.853 197.506 325.504 203.223 339.562 214.392" stroke="#4D0E0E" stroke-width="4.48855" stroke-miterlimit="10" stroke-linecap="round"/>
<path d="M243.369 231.16C263.999 226.126 287.829 226.111 308.474 231.113C329.119 236.115 346.347 246.088 355.528 258.329" stroke="#4D0E0E" stroke-width="4.48855" stroke-miterlimit="10" stroke-linecap="round"/>
<path d="M246.469 242.751C267.844 238.479 290.882 244.304 307.985 258.316C325.104 272.312 335.994 294.247 337.081 316.881" stroke="#4D0E0E" stroke-width="4.48855" stroke-miterlimit="10" stroke-linecap="round"/>
<path d="M150.244 222.688C138.857 209.421 120.806 200.613 101.808 199.06C82.8093 197.506 63.1583 203.223 49.0997 214.392" stroke="#4D0E0E" stroke-width="4.48855" stroke-miterlimit="10" stroke-linecap="round"/>
<path d="M145.293 231.16C124.663 226.126 100.834 226.111 80.1884 231.113C59.5431 236.115 42.3154 246.088 33.1346 258.329" stroke="#4D0E0E" stroke-width="4.48855" stroke-miterlimit="10" stroke-linecap="round"/>
<path d="M142.193 242.751C120.818 238.479 97.7806 244.304 80.6772 258.316C63.5583 272.312 52.6686 294.247 51.5812 316.881" stroke="#4D0E0E" stroke-width="4.48855" stroke-miterlimit="10" stroke-linecap="round"/>
<path d="M194.026 256.8C194.026 256.8 211.521 257.144 215.807 260.638C220.094 264.131 212.058 284.488 196.679 283.709C181.289 282.931 173.073 276.579 169.502 266.399C165.944 256.221 185.553 257.289 194.026 256.8Z" fill="#4D0E0E"/>
<path d="M174.053 355.5H215.947V339.885C199.326 334.157 190.153 334.144 174.053 339.885V355.5Z" fill="#B2E6DD"/>
<path d="M215.947 355.5C215.947 355.5 366.798 152.676 449.795 218.391C515.279 270.24 465.791 431.672 465.791 431.672H215.947V355.5Z" fill="#045345"/>
<path d="M174.053 355.5L-59.7949 218.391L-75.791 431.672H174.053V355.5Z" fill="#045345"/>
<path d="M215.947 339.885C215.947 339.885 401.997 132.698 439.702 223.913C448.896 246.156 439.702 223.913 439.702 223.913L215.947 356.071V339.885Z" fill="#78D3C4"/>
<path d="M174.14 339.885C174.14 339.885 -11.91 132.698 -49.615 223.913C-58.8091 246.156 -49.6147 223.913 -49.6147 223.913L174.14 356.071V339.885Z" fill="#78D3C4"/>
</g>
<rect x="174" y="356" width="42" height="98" fill="#262626"/>
</g>
<defs>
<clipPath id="clip0_882_15072">
<rect width="390" height="454" fill="white"/>
</clipPath>
<clipPath id="clip1_882_15072">
<rect width="390" height="390" fill="white"/>
</clipPath>
</defs>
</svg>
