<svg width="1080" height="1080" viewBox="0 0 1080 1080" fill="none" xmlns="http://www.w3.org/2000/svg">
<path d="M612.043 731.567C608.76 734.773 605.167 737.612 601.362 740.123C592.188 746.207 581.72 750.436 571.021 753.16C542.591 760.383 511.727 757.042 485.287 744.488C476.576 740.355 468.348 735.198 460.855 729.114C452.009 721.929 443.878 713.006 441.193 701.94C438.818 692.167 442.101 680.192 451.275 676.098C453.168 675.248 455.157 674.804 457.224 674.591C461.26 674.166 465.509 674.746 469.585 675.287C493.456 678.435 517.618 679.227 541.644 677.662C560.475 676.407 578.051 674.668 595.221 670.806C600.126 669.705 605.071 668.469 610.092 668.43C610.324 668.43 610.556 668.43 610.807 668.449C615.616 668.527 620.522 669.859 624.075 673.085C628.633 677.237 630.198 683.727 630.333 689.888C630.719 705.474 623.245 720.693 612.043 731.567Z" fill="#211919"/>
<path d="M601.362 740.123C592.188 746.207 581.72 750.436 571.02 753.16C542.591 760.383 511.727 757.042 485.287 744.488C485.248 744.314 485.229 744.159 485.19 743.986C484.842 742.016 484.669 739.833 485.905 738.192C487.469 736.183 490.501 735.855 493.167 735.681C526.502 733.672 560.05 731.644 593.27 735.082C595.221 735.275 597.268 735.526 598.832 736.627C600.088 737.477 600.822 738.752 601.362 740.123Z" fill="#4F4F4F"/>
<path d="M614.11 680.057C613.434 686.276 607.891 690.68 602.464 693.77C581.875 705.513 557.462 708.255 533.784 709.066C509.661 709.897 484.765 708.815 462.767 698.888C460.198 697.749 457.61 696.397 455.949 694.137C453.11 690.293 453.748 684.943 455.119 680.347C455.698 678.377 456.394 676.445 457.205 674.553C461.241 674.128 465.49 674.707 469.566 675.248C493.437 678.396 517.599 679.188 541.625 677.624C560.456 676.368 578.032 674.63 595.202 670.767C600.107 669.666 605.052 668.43 610.073 668.392C610.305 668.392 610.537 668.392 610.788 668.411C612.777 672.08 614.573 675.982 614.11 680.057Z" fill="#E6E6E6"/>
</svg>
