<svg width="390" height="562" viewBox="0 0 390 562" fill="none" xmlns="http://www.w3.org/2000/svg">
<path d="M199.517 324C199.517 324 213.902 324.283 217.427 327.156C220.952 330.028 214.344 346.768 201.698 346.127C189.043 345.487 182.288 340.264 179.351 331.894C176.425 323.524 192.549 324.402 199.517 324Z" fill="#4D0E0E"/>
<path d="M183.117 336.061C182.949 336.061 182.84 335.945 182.84 335.771V331.324C182.84 331.136 182.963 331.006 183.137 331.006C183.312 331.006 183.435 331.136 183.435 331.324V333.04H183.448C183.674 332.633 184.087 332.383 184.59 332.383C185.485 332.383 186.09 333.108 186.09 334.222C186.09 335.34 185.489 336.061 184.58 336.061C184.06 336.061 183.653 335.808 183.421 335.398H183.407V335.771C183.407 335.941 183.288 336.061 183.117 336.061ZM184.463 335.538C185.092 335.538 185.482 335.036 185.482 334.222C185.482 333.416 185.092 332.906 184.463 332.906C183.862 332.906 183.431 333.433 183.431 334.222C183.431 335.015 183.862 335.538 184.463 335.538Z" fill="white"/>
<path d="M187.339 336.061C187.165 336.061 187.042 335.931 187.042 335.743V332.684C187.042 332.506 187.158 332.383 187.322 332.383C187.486 332.383 187.602 332.506 187.602 332.684V333.026H187.616C187.719 332.657 188.067 332.383 188.423 332.383C188.553 332.383 188.645 332.414 188.703 332.469C188.754 332.517 188.778 332.585 188.778 332.667C188.778 332.759 188.747 332.828 188.686 332.875C188.624 332.927 188.532 332.951 188.402 332.951C187.866 332.951 187.637 333.337 187.637 333.792V335.743C187.637 335.931 187.514 336.061 187.339 336.061Z" fill="white"/>
<path d="M190.871 336.061C189.822 336.061 189.207 335.384 189.207 334.236C189.207 333.115 189.839 332.383 190.82 332.383C191.729 332.383 192.368 333.063 192.368 334.038C192.368 334.253 192.245 334.383 192.04 334.383H189.819C189.819 335.101 190.212 335.545 190.847 335.545C191.271 335.545 191.531 335.395 191.808 334.991C191.869 334.906 191.938 334.872 192.03 334.872C192.187 334.872 192.293 334.974 192.293 335.131C192.293 335.179 192.276 335.241 192.249 335.306C192.02 335.788 191.521 336.061 190.871 336.061ZM189.822 333.918H191.753C191.74 333.303 191.36 332.899 190.81 332.899C190.256 332.899 189.86 333.306 189.822 333.918Z" fill="white"/>
<path d="M194.356 336.061C193.648 336.061 193.173 335.634 193.173 334.995C193.173 334.386 193.641 334.003 194.462 333.956L195.484 333.897V333.6C195.484 333.166 195.196 332.906 194.704 332.906C194.318 332.906 194.055 333.046 193.857 333.398C193.802 333.498 193.723 333.542 193.611 333.542C193.457 333.542 193.347 333.436 193.347 333.275C193.347 333.2 193.371 333.115 193.419 333.029C193.621 332.64 194.14 332.383 194.718 332.383C195.552 332.383 196.078 332.834 196.078 333.542V335.76C196.078 335.938 195.962 336.061 195.798 336.061C195.631 336.061 195.514 335.938 195.514 335.76V335.388H195.501C195.289 335.794 194.834 336.061 194.356 336.061ZM194.489 335.555C195.05 335.555 195.484 335.162 195.484 334.649V334.359L194.53 334.417C194.051 334.448 193.778 334.66 193.778 334.995C193.778 335.333 194.062 335.555 194.489 335.555Z" fill="white"/>
<path d="M197.375 335.179V332.934H197.078C196.907 332.934 196.811 332.845 196.811 332.688C196.811 332.534 196.907 332.445 197.078 332.445H197.375V331.836C197.375 331.648 197.498 331.519 197.672 331.519C197.847 331.519 197.97 331.648 197.97 331.836V332.445H198.428C198.599 332.445 198.694 332.534 198.694 332.688C198.694 332.845 198.599 332.934 198.428 332.934H197.97V335.049C197.97 335.35 198.076 335.494 198.373 335.514L198.424 335.518C198.619 335.531 198.708 335.61 198.708 335.75C198.708 335.931 198.606 336.027 198.274 336.027H198.236C197.662 336.027 197.375 335.747 197.375 335.179Z" fill="white"/>
<path d="M199.974 336.061C199.8 336.061 199.677 335.931 199.677 335.743V331.317C199.677 331.132 199.796 331.006 199.974 331.006C200.155 331.006 200.271 331.132 200.271 331.317V333.012H200.285C200.483 332.616 200.873 332.383 201.413 332.383C202.192 332.383 202.664 332.91 202.664 333.703V335.743C202.664 335.931 202.541 336.061 202.367 336.061C202.192 336.061 202.069 335.931 202.069 335.743V333.812C202.069 333.248 201.786 332.91 201.229 332.91C200.637 332.91 200.271 333.313 200.271 333.928V335.743C200.271 335.931 200.148 336.061 199.974 336.061Z" fill="white"/>
<path d="M205.26 336.061C204.21 336.061 203.595 335.384 203.595 334.236C203.595 333.115 204.227 332.383 205.208 332.383C206.118 332.383 206.757 333.063 206.757 334.038C206.757 334.253 206.634 334.383 206.429 334.383H204.207C204.207 335.101 204.6 335.545 205.236 335.545C205.66 335.545 205.919 335.395 206.196 334.991C206.258 334.906 206.326 334.872 206.418 334.872C206.576 334.872 206.682 334.974 206.682 335.131C206.682 335.179 206.664 335.241 206.637 335.306C206.408 335.788 205.909 336.061 205.26 336.061ZM204.21 333.918H206.142C206.128 333.303 205.748 332.899 205.198 332.899C204.644 332.899 204.248 333.306 204.21 333.918Z" fill="white"/>
<path d="M209.822 331.847C209.62 331.847 209.453 331.679 209.453 331.478C209.453 331.272 209.62 331.108 209.822 331.108C210.027 331.108 210.195 331.272 210.195 331.478C210.195 331.679 210.027 331.847 209.822 331.847ZM209.822 336.061C209.648 336.061 209.525 335.931 209.525 335.743V332.701C209.525 332.513 209.648 332.383 209.822 332.383C209.996 332.383 210.119 332.513 210.119 332.701V335.743C210.119 335.931 209.996 336.061 209.822 336.061Z" fill="white"/>
<path d="M211.57 336.061C211.396 336.061 211.273 335.931 211.273 335.743V332.684C211.273 332.506 211.389 332.383 211.553 332.383C211.717 332.383 211.833 332.506 211.833 332.684V333.012H211.847C212.045 332.629 212.424 332.383 212.975 332.383C213.754 332.383 214.205 332.886 214.205 333.692V335.743C214.205 335.931 214.082 336.061 213.908 336.061C213.733 336.061 213.61 335.931 213.61 335.743V333.798C213.61 333.224 213.34 332.91 212.794 332.91C212.233 332.91 211.867 333.306 211.867 333.908V335.743C211.867 335.931 211.744 336.061 211.57 336.061Z" fill="white"/>
</svg>
