<svg width="1080" height="1080" viewBox="0 0 1080 1080" fill="none" xmlns="http://www.w3.org/2000/svg">
<path d="M577.005 689.493C577.032 707.373 572.869 725.253 564.952 741.277C564.734 741.755 564.502 742.233 564.256 742.697C560.653 749.781 555.685 756.988 548.082 759.281C541.599 761.232 534.433 759.076 528.933 755.145C524.688 752.088 521.262 748.061 518.15 743.816C517.249 742.588 516.362 741.332 515.502 740.076C506.712 727.314 498.577 713.188 498.017 697.696C497.854 693.069 498.413 688.319 500.474 684.17C501.375 682.368 502.535 680.73 503.914 679.27C507.149 675.776 511.503 673.237 516.048 671.667C522.504 669.429 529.397 668.91 536.208 668.392C544.752 668.938 551.372 668.2 557.855 668.774C563.465 669.279 569.429 671.135 573.074 675.271C573.633 675.898 574.152 676.595 574.589 677.345C576.718 680.949 577.005 685.316 577.005 689.493Z" fill="#211919"/>
<path d="M573.073 675.271C572.623 676.813 571.913 678.26 570.931 679.556C568.515 682.723 564.748 684.661 560.858 685.603C556.981 686.545 552.955 686.586 548.956 686.64C541.571 686.722 534.174 686.804 526.79 686.9C520.675 686.968 514.246 686.954 508.909 683.992C506.916 682.887 505.169 681.208 503.914 679.27C507.149 675.776 511.503 673.237 516.048 671.667C522.504 669.429 529.396 668.91 536.207 668.392C544.752 668.938 551.372 668.2 557.855 668.774C563.465 669.279 569.429 671.135 573.073 675.271Z" fill="#E3E3E3"/>
<path d="M564.952 741.278C564.734 741.755 564.502 742.233 564.256 742.697C560.653 749.781 555.685 756.988 548.082 759.281C541.599 761.233 534.433 759.076 528.932 755.145C524.688 752.088 521.262 748.061 518.15 743.816C522.354 737.647 528.755 732.979 536.003 731.246C546.089 728.83 557.445 732.351 564.147 740.268C564.42 740.595 564.693 740.936 564.952 741.278Z" fill="#4F4F4F"/>
</svg>
