<svg width="390" height="562" viewBox="0 0 390 562" fill="none" xmlns="http://www.w3.org/2000/svg">
<path d="M200.517 315C200.517 315 214.902 315.283 218.427 318.156C221.952 321.028 215.344 337.768 202.698 337.127C190.043 336.487 183.288 331.264 180.351 322.894C177.425 314.524 193.549 315.402 200.517 315Z" fill="#4D0E0E"/>
<path d="M193.791 327.061C193.616 327.061 193.493 326.931 193.493 326.743V322.317C193.493 322.132 193.613 322.006 193.791 322.006C193.972 322.006 194.088 322.132 194.088 322.317V324.012H194.102C194.3 323.616 194.689 323.383 195.229 323.383C196.009 323.383 196.48 323.91 196.48 324.703V326.743C196.48 326.931 196.357 327.061 196.183 327.061C196.009 327.061 195.886 326.931 195.886 326.743V324.812C195.886 324.248 195.602 323.91 195.045 323.91C194.454 323.91 194.088 324.313 194.088 324.928V326.743C194.088 326.931 193.965 327.061 193.791 327.061Z" fill="white"/>
<path d="M199.059 327.061C198.075 327.061 197.412 326.354 197.412 325.222C197.412 324.087 198.075 323.383 199.059 323.383C200.04 323.383 200.703 324.087 200.703 325.222C200.703 326.354 200.04 327.061 199.059 327.061ZM199.059 326.538C199.688 326.538 200.098 326.06 200.098 325.222C200.098 324.385 199.688 323.906 199.059 323.906C198.43 323.906 198.017 324.385 198.017 325.222C198.017 326.06 198.43 326.538 199.059 326.538Z" fill="white"/>
<path d="M201.983 327.061C201.808 327.061 201.685 326.931 201.685 326.743V322.324C201.685 322.136 201.808 322.006 201.983 322.006C202.157 322.006 202.28 322.136 202.28 322.324V326.743C202.28 326.931 202.157 327.061 201.983 327.061Z" fill="white"/>
<path d="M204.78 327.061C203.874 327.061 203.259 326.336 203.259 325.222C203.259 324.108 203.871 323.383 204.766 323.383C205.276 323.383 205.686 323.633 205.898 324.022H205.911V322.324C205.911 322.136 206.034 322.006 206.209 322.006C206.383 322.006 206.506 322.136 206.506 322.324V326.771C206.506 326.941 206.386 327.061 206.216 327.061C206.048 327.061 205.911 326.945 205.911 326.771V326.364H205.901C205.706 326.788 205.337 327.061 204.78 327.061ZM204.893 326.538C205.505 326.538 205.915 326.019 205.915 325.222C205.915 324.429 205.505 323.906 204.893 323.906C204.264 323.906 203.867 324.419 203.867 325.222C203.867 326.029 204.264 326.538 204.893 326.538Z" fill="white"/>
</svg>
