<svg width="1080" height="1080" viewBox="0 0 1080 1080" fill="none" xmlns="http://www.w3.org/2000/svg">
<path d="M173.219 303.23C150.57 314.051 127.408 325.212 109.99 342.925C92.5715 360.638 81.8133 386.548 89.1872 409.943C96.5612 433.338 126.414 449.654 152.277 436.971C100.24 481.618 71.4742 550.514 76.8611 617.64C78.5532 638.691 94.6051 657.972 115.485 664.042C136.365 670.112 160.738 662.567 175.051 645.444C158.13 714.17 177.147 790.284 224.651 843.92C235.238 855.874 253.2 861.152 268.864 856.914C284.527 852.676 297.055 839.139 299.431 820.262C313.201 858.234 343.814 890.167 386.319 908.827C444.038 947.823 519.268 961.562 587.698 945.603C656.129 929.645 716.642 884.252 750.283 823.32C746.603 839.387 755.281 857.333 770.371 864.893C785.46 872.454 805.595 868.961 817.036 856.79C855.8 815.496 878.931 760.726 880.266 702.93C881.943 720.069 896.691 735.189 914.249 737.797C931.806 740.405 950.575 730.284 957.483 714.418C994.493 629.641 984.309 527.073 934.74 447.061C948.588 458.394 970.663 458.875 985.023 448.179C999.383 437.467 1004.54 416.681 996.759 400.83C976.174 358.838 944.35 322.076 906.005 298.511C879.226 316.364 845.834 324.669 813.481 321.564C781.129 318.459 750.081 303.929 727.462 281.326C712.792 266.671 708.352 243.26 718.35 223.498C707.265 199.389 709.128 170.095 723.007 147.399C711.022 145.831 698.572 147.849 686.385 149.898C703.741 138.861 721.905 126.985 731.017 108.915C740.145 90.8445 735.923 64.8415 716.968 56.6448C667.368 35.1749 610.333 30.2227 557.566 42.8128C504.799 55.4029 456.675 85.4266 421.699 125.619C420.938 106.959 403.924 90.2546 384.674 89.261C365.424 88.2675 346.671 103.14 349.667 121.287C386.304 161.045 398.055 220.766 379.085 270.8C360.114 320.819 311.213 358.977 257.329 366.491C221.36 358.263 189.551 334.372 173.219 303.23Z" fill="#1C1C1C"/>
<path d="M816.353 1043.53L553.064 1039.96L289.759 1043.53C289.759 1043.53 297.552 941.66 371.649 906.094C445.73 870.513 480.815 861.012 490.455 859.398C499.195 857.923 544.386 854.71 552.443 854.135C552.66 854.12 552.862 854.12 553.049 854.089H553.064C553.219 854.104 553.421 854.104 553.669 854.135C561.68 854.71 606.917 857.923 615.657 859.398C625.298 860.997 660.367 870.498 734.479 906.094C808.56 941.66 816.353 1043.53 816.353 1043.53Z" fill="#C7C7C7"/>
<path d="M551.294 928.061C491.371 928.061 485.068 861.695 485.068 861.695C485.068 861.695 507.997 858.529 513.772 845.768C516.986 838.673 517.11 823.351 516.582 811.118C516.163 801.307 515.309 793.482 515.309 793.482C515.309 793.482 567.268 773.239 580.542 778.005C583.662 779.123 584.64 781.622 582.327 786.077C582.265 786.186 582.218 786.31 582.156 786.403C576.195 797.953 573.959 807.408 573.307 815.93C572.609 824.562 573.54 832.231 573.897 840.195C574.596 856.091 605.691 858.746 605.691 858.746C605.691 858.746 611.233 928.061 551.294 928.061Z" fill="#8F8F8F"/>
<path d="M747.287 219.043C747.287 219.043 753.698 167.782 803.034 154.105C852.369 140.429 873.575 165.749 878.9 216.202C884.225 266.655 843.66 282.366 800.519 296.151C757.377 309.937 729.682 266.935 729.682 266.935L747.287 219.043Z" fill="#F2F2F2"/>
<path d="M747.287 219.043C747.287 219.043 753.698 167.782 803.034 154.105C852.369 140.429 873.575 165.749 878.9 216.202C884.225 266.655 843.66 282.366 800.519 296.151C757.377 309.937 729.682 266.935 729.682 266.935L747.287 219.043Z" fill="#F2F2F2"/>
<path d="M582.141 786.419C576.179 797.969 573.944 807.423 573.292 815.946C564.226 825.462 547.786 827.108 534.947 822.264C528.132 819.718 522.124 815.775 516.582 811.149C516.163 801.338 515.309 793.514 515.309 793.514C515.309 793.514 567.268 773.27 580.542 778.036C581.364 780.737 581.908 783.563 582.141 786.419Z" fill="#3D3D3D"/>
<path d="M720.709 217.739C720.709 217.739 709.966 222.194 709.966 195.586C709.966 168.978 718.101 140.258 760.575 111.678C803.065 83.0981 856.608 75.8639 896.473 103.963C936.339 132.061 966.969 235.716 937.038 267.758C907.108 299.815 898.787 306.987 851.764 322.806C804.741 338.625 766.505 335.676 742.909 310.045C719.297 284.415 720.709 217.739 720.709 217.739Z" fill="#D4D4D4"/>
<path d="M747.287 219.043C747.287 219.043 753.698 167.782 803.034 154.105C852.369 140.429 873.575 165.749 878.9 216.202C884.225 266.655 843.66 282.366 800.519 296.151C757.377 309.937 729.682 266.935 729.682 266.935L747.287 219.043Z" fill="#F2F2F2"/>
<path d="M214.653 348.669C214.653 348.669 152.448 307.965 152.448 236.57C152.448 165.174 190.327 96.8989 270.121 96.8989C349.915 96.8989 382.19 147.647 387.375 216.155C392.56 284.663 259.363 373.586 259.363 373.586L214.653 348.669Z" fill="#D4D4D4"/>
<path d="M259.984 333.347C259.984 333.347 207.854 288.203 209.375 246.365C210.897 204.528 237.552 156.077 274.546 166.928C311.524 177.78 321.786 223.281 321.786 223.281L304.709 312.917L259.984 333.347Z" fill="#F2F2F2"/>
<path d="M495.501 597.677C457.482 605.672 419.448 613.666 381.429 621.661C329.423 632.59 271.487 606.494 246.618 560.931C221.748 515.368 232.118 454.311 270.758 418.87C247.052 427.377 221.049 427.346 205.975 413.762C190.902 400.179 189.023 375.06 201.924 359.505C225.055 331.624 261.816 314.842 298.748 315.324C281.594 316.752 262.701 308.974 254.023 294.614C245.345 280.255 247.596 260.492 259.301 248.321C296.14 210.008 357.864 196.393 412.602 215.876C411.531 211.762 410.475 207.648 409.404 203.534C407.867 188.911 421.078 174.442 436.245 174.116C451.412 173.79 465.275 187.684 459.64 208.999C499.568 148.579 587.093 122.778 655.011 151.42C668.3 157.024 677.63 170.499 677.925 184.533C678.22 198.567 669.48 212.399 653.226 222.365C671.187 220.347 688.45 214.681 706.086 210.862C723.721 207.043 742.474 205.133 759.644 210.582C776.813 216.031 791.981 230.345 793.378 247.794C794.775 265.243 778.257 283.297 763.509 277.74C787.153 282.133 811.075 286.635 832.84 296.57C854.605 306.521 874.336 322.682 883.2 344.354C892.049 366.025 887.78 393.472 869.26 408.36C850.724 423.232 818.294 420.065 803.593 401.327C831.396 449.996 826.475 514.405 791.577 558.587C756.679 602.769 693.775 624.238 637.981 611.012C613.375 605.175 590.679 593.361 566.291 586.701C541.918 580.041 513.633 579.358 495.501 597.677Z" fill="#363636"/>
<path d="M759.271 673.543C757.268 678.293 754.816 682.873 751.928 687.22C704.859 757.653 619.305 802.393 532.681 801.866C446.025 801.338 361.077 755.573 314.939 684.581C314.893 684.519 314.862 684.441 314.815 684.379C315.374 684.006 315.933 683.603 316.507 683.215C333.428 671.571 360.565 659.494 402.247 656.42C488.313 650.071 534.59 621.987 543.361 574.08C543.361 574.08 540.458 629.998 649.003 652.539C707.793 664.756 738.733 667.178 758.541 673.326C758.79 673.372 759.038 673.465 759.271 673.543Z" fill="#8F8F8F"/>
<path d="M351.949 655.178C351.949 655.178 323.027 672.782 342.991 689.083C362.955 705.383 389.269 701.89 419.603 692.343C449.922 682.796 449.502 646.966 407.882 645.538C366.262 644.094 351.949 655.178 351.949 655.178Z" fill="#BDBDBD"/>
<path d="M722.292 660.115C722.292 660.115 751.214 677.719 731.25 694.019C711.286 710.32 684.972 706.827 654.638 697.279C624.319 687.732 624.739 651.902 666.359 650.474C707.979 649.015 722.292 660.115 722.292 660.115Z" fill="#BDBDBD"/>
<path d="M795.132 705.026C784.281 686.645 775.556 678.744 759.271 673.543C759.038 673.465 758.79 673.372 758.526 673.295C738.717 667.147 707.778 664.725 648.988 652.508C540.443 629.982 543.346 574.049 543.346 574.049C534.575 621.956 488.282 650.039 402.231 656.389C360.549 659.447 333.413 671.54 316.492 683.183C315.917 683.572 315.343 683.991 314.8 684.348C298.096 696.317 292.072 707.463 292.072 707.463C270.137 688.074 241.013 643.302 284.9 569.733C328.787 496.164 302.458 494.425 329.221 386.626C355.97 278.857 491.309 267.711 491.309 267.711C491.309 267.711 492.582 261.098 495.516 312.545C498.466 363.992 534.435 380.804 567.067 370.434C599.699 360.095 572.035 324.529 572.035 324.529C588.412 339.029 616.108 336.7 620.346 309.58C624.599 282.459 590.896 262.045 590.896 262.045C711.038 275.116 754.831 359.272 760.637 410.424C766.459 461.561 748.591 475.036 790.444 562.871C832.297 650.722 795.132 705.026 795.132 705.026Z" fill="#D4D4D4"/>
<path d="M758.526 673.295C738.717 667.147 707.777 664.725 648.988 652.508C540.443 629.982 543.346 574.049 543.346 574.049C534.575 621.956 488.282 650.04 402.231 656.389C360.549 659.447 333.413 671.541 316.492 683.184C308.745 664.213 287.756 600.192 341.672 569.299C405.367 532.786 497.286 534.819 497.286 534.819C497.286 534.819 598.689 530.83 648.444 545.345C698.199 559.844 742.676 569.05 756.073 607.829C764.968 633.553 761.708 659.075 758.526 673.295Z" fill="#F2F2F2"/>
<path d="M525.912 511.751C525.912 511.751 492.923 510.943 501.663 530.271C510.403 549.598 526.518 580.46 541.716 581.966C556.914 583.472 565.048 560.294 576.862 533.934C588.661 507.574 546.916 511.751 525.912 511.751Z" fill="#211919"/>
<path d="M428.871 431.894C428.871 431.894 419.556 436.536 419.556 451.051C419.556 465.566 421.994 487.191 433.124 491.414C444.255 495.637 451.971 482.146 452.421 472.257C452.871 462.368 449.456 421.183 428.871 431.894Z" fill="#211919"/>
<path d="M439.319 386.393C439.319 386.393 424.369 374.113 407.199 387.402C390.045 400.675 389.082 419.009 393.445 419.289C397.807 419.553 405.228 402.616 418.175 402.616C431.122 402.616 439.319 404.075 439.319 386.393Z" fill="#211919"/>
<path d="M611.326 386.393C611.326 386.393 626.276 374.113 643.446 387.402C660.615 400.691 661.562 419.009 657.2 419.289C652.838 419.553 645.417 402.616 632.47 402.616C619.523 402.616 611.326 404.075 611.326 386.393Z" fill="#211919"/>
<path d="M630.079 431.894C630.079 431.894 639.394 436.536 639.394 451.051C639.394 465.566 636.956 487.191 625.826 491.414C614.695 495.637 606.979 482.146 606.529 472.257C606.079 462.368 609.494 421.183 630.079 431.894Z" fill="#211919"/>
<path d="M376.632 576.16C376.632 576.16 248.434 498.276 123.433 599.074" stroke="#8F8F8F" stroke-width="3" stroke-miterlimit="10"/>
<path d="M364.911 599.198C268.739 590.737 169.882 644.342 127.082 728.157" stroke="#8F8F8F" stroke-width="3" stroke-miterlimit="10"/>
<path d="M361.17 623.633C251.135 662.723 171.419 771.143 169.292 884.609" stroke="#8F8F8F" stroke-width="3" stroke-miterlimit="10"/>
<path d="M664.387 574.033C697.361 536.837 749.677 512.123 804.726 507.761C859.774 503.398 916.701 519.435 957.406 550.794" stroke="#8F8F8F" stroke-width="3" stroke-miterlimit="10"/>
<path d="M678.111 586.996C737.863 572.884 806.915 572.853 866.714 586.887C926.513 600.921 976.423 628.88 1003 663.25" stroke="#8F8F8F" stroke-width="3" stroke-miterlimit="10"/>
<path d="M686.525 624.937C748.435 612.968 815.173 629.315 864.758 668.575C914.342 707.836 945.902 769.358 949.069 832.852" stroke="#8F8F8F" stroke-width="3" stroke-miterlimit="10"/>
</svg>
