<svg width="342" height="296" viewBox="0 0 342 296" fill="none" xmlns="http://www.w3.org/2000/svg">
<rect width="342" height="295" rx="32" fill="#B2E6DD"/>
<path d="M0 150H342V263C342 280.673 327.673 295 310 295H32C14.3269 295 0 280.673 0 263V150Z" fill="#78D3C4"/>
<mask id="mask0_911_13911" style="mask-type:luminance" maskUnits="userSpaceOnUse" x="44" y="18" width="254" height="278">
<path d="M298 18.4819H44V295.482H298V18.4819Z" fill="white"/>
</mask>
<g mask="url(#mask0_911_13911)">
<path d="M87.8151 78.6632C82.8112 81.1403 77.3009 84.7826 73.4559 88.8416C69.611 92.9006 67.2395 98.8425 68.8665 104.206C70.4935 109.569 77.086 113.312 82.7883 110.402C71.2993 120.635 64.9525 136.431 66.142 151.818C66.5181 156.641 70.0561 161.063 74.6685 162.452C79.281 163.841 84.6609 162.112 87.8151 158.185C84.0776 173.942 88.2756 191.382 98.7668 203.683C101.1 206.422 105.068 207.634 108.521 206.661C111.975 205.689 114.745 202.587 115.267 198.258C118.306 206.962 125.068 214.278 134.446 218.561C147.186 227.497 163.794 230.645 178.898 226.987C194.001 223.33 207.363 212.92 214.784 198.96C213.971 202.641 215.889 206.754 219.22 208.49C222.551 210.226 226.994 209.424 229.519 206.63C238.077 197.162 243.18 184.615 243.48 171.365C243.848 175.293 247.102 178.757 250.985 179.359C254.861 179.961 259.005 177.639 260.533 174.004C268.706 154.565 266.45 131.06 255.513 112.717C258.568 115.318 263.441 115.426 266.611 112.972C269.78 110.518 270.916 105.749 269.205 102.115C264.661 92.4916 256.473 81.9017 248 76.5C242.091 80.5899 235.882 84.6591 228.744 83.9492C221.607 83.2315 214.753 79.9056 209.757 74.7199C206.519 71.3631 205.536 65.9923 207.746 61.4625C205.298 55.9373 208.938 48.2011 212 43C209.352 42.645 203.38 44.1306 200.694 44.5936C204.523 42.0625 208.529 39.3385 210.548 35.2023C212.558 31.0584 211.63 25.1011 207.447 23.2182C196.495 18.2949 183.909 17.1606 172.259 20.0466C160.617 22.9327 149.987 29.816 142.267 39.0299C142.098 34.7548 138.345 30.9272 134.093 30.6957C129.841 30.472 125.705 33.875 126.365 38.0344C134.454 47.1479 137.048 60.8374 132.858 72.3046C128.667 83.7717 117.877 92.5148 105.981 94.2433C98.0454 92.3605 91.4221 85.8012 87.8151 78.6632Z" fill="#AF4523"/>
<path d="M170.814 222.482C157.415 222.482 156 207.519 156 207.519C156 207.519 161.133 206.806 162.423 203.928C163.139 202.327 163.17 198.872 163.053 196.117C162.96 193.908 162.766 192.139 162.766 192.139C162.766 192.139 174.384 187.569 177.354 188.647C178.054 188.897 178.272 189.459 177.751 190.469C177.735 190.491 177.728 190.522 177.712 190.544C176.374 193.148 175.877 195.282 175.729 197.202C175.574 199.153 175.783 200.877 175.861 202.676C176.017 206.259 182.969 206.859 182.969 206.859C182.969 206.859 184.221 222.482 170.814 222.482Z" fill="#F09915"/>
<path d="M214.879 59.6565C214.879 59.6565 216.29 47.5697 227.168 44.3476C238.047 41.1255 242.723 47.0935 243.896 58.9899C245.069 70.8862 236.13 74.5845 226.616 77.8383C217.102 81.0921 211 70.9497 211 70.9497L214.879 59.6565Z" fill="#F2F2F2"/>
<path d="M214.879 59.6565C214.879 59.6565 216.29 47.5697 227.168 44.3476C238.047 41.1255 242.723 47.0935 243.896 58.9899C245.069 70.8862 236.13 74.5845 226.616 77.8383C217.102 81.0921 211 70.9497 211 70.9497L214.879 59.6565Z" fill="#F2F2F2"/>
<path d="M178 190.402C176.748 192.826 176.282 194.812 176.144 196.6C174.243 198.6 170.807 198.946 168.113 197.922C166.686 197.384 165.427 196.558 164.269 195.589C164.182 193.533 164 191.886 164 191.886C164 191.886 174.877 187.632 177.658 188.635C177.84 189.215 177.949 189.801 178 190.402Z" fill="#4D0E0E"/>
<path d="M209.336 59.3875C209.336 59.3875 207 60.3977 207 54.352C207 48.3064 208.769 41.771 218.008 35.2739C227.247 28.7768 238.89 27.1315 247.562 33.5214C256.233 39.9114 262.894 63.474 256.385 70.7594C249.875 78.0448 248.068 79.6748 237.839 83.2716C227.617 86.8683 219.301 86.1949 214.167 80.3712C209.026 74.5398 209.336 59.3875 209.336 59.3875Z" fill="#F59338"/>
<path d="M214.879 59.6565C214.879 59.6565 216.29 47.5697 227.168 44.3476C238.047 41.1255 242.723 47.0935 243.896 58.9899C245.069 70.8862 236.13 74.5845 226.616 77.8383C217.102 81.0921 211 70.9497 211 70.9497L214.879 59.6565Z" fill="#F4C879"/>
<path d="M96.757 89.8097C96.757 89.8097 83 80.5425 83 64.2847C83 48.0269 91.3818 32.4819 109.03 32.4819C126.678 32.4819 133.814 44.041 134.967 59.6319C136.113 75.2305 106.654 95.4819 106.654 95.4819L96.757 89.8097Z" fill="#F59338"/>
<path d="M106.713 87.4819C106.713 87.4819 94.6616 77.0007 95.0073 67.2854C95.361 57.5702 101.528 46.323 110.074 48.8397C118.62 51.3565 121 61.9237 121 61.9237L117.052 82.7376L106.713 87.4819Z" fill="#F4C879"/>
<path d="M158.586 146.476C150.204 148.287 141.83 150.106 133.449 151.918C121.988 154.402 109.224 148.478 103.739 138.129C98.2608 127.78 100.544 113.922 109.056 105.873C103.831 107.807 98.0999 107.799 94.7825 104.711C91.4575 101.623 91.0515 95.9214 93.8938 92.3901C98.9886 86.0612 107.094 82.2471 115.231 82.3541C111.454 82.6751 107.286 80.9171 105.37 77.6533C103.455 74.3896 103.953 69.9104 106.535 67.1435C114.648 58.4452 128.255 55.3495 140.321 59.7751C140.084 58.8426 139.854 57.9101 139.616 56.97C139.279 53.6527 142.191 50.3659 145.531 50.2895C148.871 50.2131 151.928 53.3698 150.687 58.2082C159.482 44.4881 178.773 38.6331 193.743 45.1378C196.67 46.4066 198.731 49.4716 198.792 52.659C198.861 55.8463 196.93 58.9878 193.345 61.2503C197.298 60.7917 201.106 59.5076 204.998 58.6362C208.89 57.7649 213.011 57.3368 216.804 58.5751C220.588 59.8133 223.929 63.0618 224.235 67.0212C224.542 70.9805 220.902 75.0775 217.654 73.8163C222.864 74.8176 228.135 75.8342 232.931 78.0967C237.727 80.3592 242.078 84.028 244.024 88.9428C245.97 93.8576 245.035 100.095 240.952 103.473C236.869 106.852 229.721 106.133 226.48 101.876C232.609 112.928 231.521 127.55 223.837 137.586C216.145 147.615 202.286 152.491 189.989 149.487C184.565 148.165 179.562 145.482 174.192 143.969C168.813 142.471 162.585 142.31 158.586 146.476Z" fill="#D15933"/>
<path d="M216 163.76C215.563 164.822 215.019 165.847 214.383 166.819C204.003 182.586 185.137 192.602 166.042 192.481C146.939 192.36 128.203 182.118 118.031 166.224C118.023 166.209 118.015 166.194 118 166.179C118.123 166.096 118.245 166.006 118.376 165.915C122.109 163.307 128.088 160.602 137.28 159.916C156.253 158.492 166.463 152.206 168.395 141.482C168.395 141.482 167.751 154 191.684 159.049C204.647 161.785 211.469 162.328 215.839 163.699C215.893 163.722 215.946 163.745 216 163.76Z" fill="#F09915"/>
<path d="M128.505 160.795C128.505 160.795 122.165 164.956 126.539 168.807C130.914 172.659 136.683 171.831 143.329 169.579C149.975 167.32 149.883 158.854 140.76 158.511C131.645 158.177 128.505 160.795 128.505 160.795Z" fill="#E66000"/>
<path d="M207.495 160.795C207.495 160.795 213.836 164.956 209.461 168.807C205.086 172.659 199.317 171.831 192.671 169.579C186.025 167.32 186.117 158.854 195.24 158.511C204.362 158.177 207.495 160.795 207.495 160.795Z" fill="#E66000"/>
<path d="M223.671 170.925C221.296 166.756 219.386 164.962 215.817 163.787C215.764 163.771 215.711 163.749 215.657 163.733C211.32 162.336 204.547 161.787 191.678 159.023C167.92 153.916 168.559 141.228 168.559 141.228C166.642 152.091 156.505 158.458 137.671 159.901C128.546 160.596 122.61 163.336 118.904 165.978C118.783 166.069 118.653 166.161 118.532 166.245C114.871 168.955 113.562 171.482 113.562 171.482C108.76 167.085 102.383 156.931 111.995 140.251C121.598 123.57 115.837 123.173 121.697 98.7283C127.557 74.2913 157.175 71.7644 157.175 71.7644C157.175 71.7644 157.456 70.2605 158.096 81.9331C158.742 93.5981 166.611 97.4152 173.757 95.0639C180.903 92.7202 174.845 84.6509 174.845 84.6509C178.429 87.9412 184.495 87.4145 185.415 81.2613C186.344 75.1082 178.97 70.4819 178.97 70.4819C205.262 73.444 214.851 92.5294 216.122 104.133C217.392 115.73 213.489 118.791 222.643 138.709C231.806 158.611 223.671 170.925 223.671 170.925Z" fill="#F59338"/>
<path d="M216.273 164.221C211.927 162.814 205.139 162.261 192.244 159.477C168.435 154.333 169.076 141.554 169.076 141.554C167.154 152.495 156.996 158.908 138.122 160.361C128.978 161.061 123.03 163.822 119.316 166.482C117.615 162.145 113.017 147.528 124.837 140.469C138.808 132.127 158.971 132.596 158.971 132.596C158.971 132.596 181.216 131.688 192.129 135.002C203.042 138.316 212.796 140.416 215.74 149.274C217.684 155.14 216.975 160.969 216.273 164.221Z" fill="#F4C879"/>
<path d="M164.883 127.533C164.883 127.533 157.341 127.362 159.336 131.471C161.331 135.58 165.019 142.145 168.492 142.467C171.965 142.789 173.825 137.857 176.527 132.251C179.229 126.646 169.684 127.533 164.883 127.533Z" fill="#211919"/>
<path d="M167.676 160.482C167.676 160.482 179.369 160.712 182.234 163.047C185.099 165.382 179.728 178.988 169.449 178.467C159.163 177.947 153.672 173.702 151.285 166.898C148.907 160.095 162.013 160.809 167.676 160.482Z" fill="#4D0E0E"/>
<path d="M143.983 108.879C143.983 108.879 142 109.927 142 113.199C142 116.471 142.518 121.345 144.886 122.301C147.254 123.258 148.897 120.213 148.993 117.981C149.082 115.757 148.364 106.465 143.983 108.879Z" fill="#211919"/>
<path d="M146 98.5692C146 98.5692 142.579 95.9869 138.649 98.7814C134.719 101.569 134.505 105.425 135.507 105.481C136.509 105.538 138.204 101.979 141.163 101.979C144.123 101.979 146 102.283 146 98.5692Z" fill="#211919"/>
<path d="M183 98.5692C183 98.5692 186.421 95.9869 190.351 98.7814C194.281 101.569 194.495 105.425 193.493 105.481C192.491 105.538 190.796 101.979 187.837 101.979C184.877 101.972 183 102.283 183 98.5692Z" fill="#211919"/>
<path d="M188.734 108.879C188.734 108.879 191 109.927 191 113.199C191 116.471 190.408 121.345 187.702 122.301C184.996 123.258 183.119 120.213 183.009 117.981C182.899 115.757 183.728 106.465 188.734 108.879Z" fill="#211919"/>
<path d="M132 141.597C132 141.597 104.153 125.005 77 146.482" stroke="#4D0E0E" stroke-width="3" stroke-miterlimit="10"/>
<path d="M130 146.684C108.567 144.731 86.5385 157.114 77 176.482" stroke="#4D0E0E" stroke-width="3" stroke-miterlimit="10"/>
<path d="M130 152.482C105.341 161.468 87.4753 186.398 87 212.482" stroke="#4D0E0E" stroke-width="3" stroke-miterlimit="10"/>
<path d="M197 141.482C204.086 133.153 215.336 127.621 227.169 126.641C239.002 125.661 251.247 129.256 260 136.274" stroke="#4D0E0E" stroke-width="3" stroke-miterlimit="10"/>
<path d="M199 143.924C212.06 140.676 227.149 140.668 240.217 143.901C253.285 147.133 264.188 153.567 270 161.482" stroke="#4D0E0E" stroke-width="3" stroke-miterlimit="10"/>
<path d="M201 153.334C214.68 150.682 229.42 154.306 240.373 163.018C251.327 171.731 258.301 185.39 259 199.482" stroke="#4D0E0E" stroke-width="3" stroke-miterlimit="10"/>
<path d="M113.328 225.482C113.328 225.482 106.887 244.343 97.8979 273.587C88.9085 302.831 70.7704 334.132 63.1541 345.627L41.9665 358.158C41.9665 358.158 36.9143 362.644 43.0058 363.376L46.9809 363.62C46.9809 363.62 46.0099 365.92 44.1816 370.529C42.3534 375.137 42.6796 378.024 49.9849 381.513C57.2902 384.995 61.1287 385.558 63.9734 382.435C66.8257 379.304 72.2042 363.833 73.691 353.366C73.691 353.366 95.1973 323.947 107.676 307.386C120.155 290.826 122.461 284.503 125.579 279.872C128.712 275.248 113.328 225.482 113.328 225.482Z" fill="#F09915"/>
<path d="M224.818 225.482C224.818 225.482 231.334 244.343 240.428 273.587C249.522 302.831 267.871 334.132 275.576 345.627L297.011 358.158C297.011 358.158 302.122 362.644 295.959 363.376L291.938 363.62C291.938 363.62 292.92 365.92 294.77 370.529C296.619 375.137 296.289 378.024 288.899 381.513C281.508 384.995 277.625 385.558 274.747 382.435C271.862 379.304 266.421 363.833 264.917 353.366C264.917 353.366 243.16 323.947 230.536 307.386C217.911 290.826 215.578 284.503 212.424 279.872C209.262 275.248 224.818 225.482 224.818 225.482Z" fill="#F09915"/>
<path d="M156.943 215.482C164.133 219.904 173.666 220.096 181.023 215.967C186.243 237.544 190.929 259.322 192.953 281.445C194.977 303.562 194.292 326.109 188.898 347.64C187.042 355.035 184.204 362.893 177.805 366.929C171.369 370.996 162.589 369.949 156.335 365.589C150.088 361.229 146.147 354.08 144.2 346.654C142.244 339.228 142.077 331.455 142.024 323.767C141.742 286.845 143.827 249.284 156.943 215.482Z" fill="white"/>
<path d="M175.758 269.058C173.372 306.27 173.449 344.633 175.781 382.482C187.726 382.068 203.009 376.682 213.095 370.873C216.046 333.715 218.99 296.556 221.941 259.398C222.793 248.656 223.653 237.876 226 226.428C225.574 223.536 222.53 221.587 219.602 221.487C216.673 221.388 213.9 222.7 211.36 224.165C194.93 233.671 177.059 248.756 175.758 269.058Z" fill="#03856D"/>
<path d="M177.05 263.355C177.843 249.241 178.643 235.127 179.436 221.021C179.72 215.978 180.101 210.637 182.973 206.517C186.069 202.07 191.574 199.918 196.906 199.544C207.451 198.812 218.176 204.587 223.531 213.88C224.959 216.359 226.044 219.136 225.999 222.012C225.931 226.422 223.284 230.313 220.569 233.746C208.895 248.493 193.877 260.479 177.027 268.482C177.027 266.834 176.953 265.194 177.05 263.355Z" fill="#045345"/>
<path d="M163.242 269.058C165.628 306.27 165.551 344.633 163.219 382.482C151.274 382.068 135.991 376.682 125.905 370.873C122.954 333.715 120.01 296.556 117.059 259.398C116.207 248.656 115.347 237.876 113 226.428C113.426 223.536 116.47 221.587 119.398 221.487C122.326 221.388 125.1 222.7 127.641 224.165C144.063 233.671 161.941 248.756 163.242 269.058Z" fill="#03856D"/>
<path d="M163.941 263.355C163.1 249.241 162.251 235.127 161.41 221.021C161.108 215.978 160.704 210.637 157.656 206.517C154.371 202.07 148.53 199.918 142.872 199.544C131.682 198.812 120.302 204.587 114.62 213.88C113.105 216.359 111.954 219.136 112.001 222.012C112.073 226.422 114.882 230.313 117.763 233.746C130.151 248.493 146.086 260.479 163.965 268.482C163.973 266.834 164.052 265.194 163.941 263.355Z" fill="#045345"/>
</g>
<rect x="123" y="83.0005" width="98" height="67" fill="#045345"/>
<ellipse cx="170.696" cy="126.402" rx="7.5" ry="7.40179" fill="#012E26"/>
<ellipse cx="171.01" cy="134.809" rx="3.90698" ry="5.01256" fill="#012E26"/>
<path d="M141.452 112C140.546 112 140.015 111.454 140.015 110.5V102.227C140.015 101.274 140.546 100.727 141.452 100.727H145.257C147.476 100.727 148.812 101.797 148.812 103.54C148.812 104.805 147.859 105.813 146.609 105.985V106.047C148.132 106.118 149.335 107.25 149.335 108.75C149.335 110.727 147.812 112 145.398 112H141.452ZM142.882 105.321H144.359C145.398 105.321 146.023 104.829 146.023 104.016C146.023 103.227 145.46 102.758 144.499 102.758H142.882V105.321ZM142.882 109.969H144.585C145.765 109.969 146.421 109.454 146.421 108.5C146.421 107.579 145.749 107.063 144.57 107.063H142.882V109.969ZM154.664 112.18C153.757 112.18 153.226 111.633 153.226 110.688V102.227C153.226 101.274 153.757 100.727 154.664 100.727H158.054C160.867 100.727 162.382 102.118 162.382 104.446C162.382 105.774 161.773 106.961 160.625 107.54L162.007 109.891C162.257 110.305 162.312 110.54 162.312 110.875C162.312 111.633 161.718 112.18 160.882 112.18C160.187 112.18 159.89 111.938 159.406 111.063L157.734 108.055H156.093V110.688C156.093 111.633 155.57 112.18 154.664 112.18ZM156.093 106.094H157.773C158.828 106.094 159.453 105.477 159.453 104.5C159.453 103.54 158.789 102.891 157.765 102.891H156.093V106.094ZM167.625 112.172C166.719 112.172 166.164 111.657 166.164 110.805C166.164 110.563 166.242 110.211 166.367 109.868L169.148 102.227C169.562 101.079 170.258 100.555 171.375 100.555C172.555 100.555 173.242 101.055 173.672 102.227L176.477 109.868C176.609 110.235 176.664 110.5 176.664 110.797C176.664 111.602 176.062 112.172 175.227 112.172C174.398 112.172 173.969 111.797 173.719 110.875L173.336 109.625H169.477L169.094 110.829C168.82 111.782 168.391 112.172 167.625 112.172ZM170.047 107.461H172.711L171.391 103.118H171.328L170.047 107.461ZM184.18 112.172C183 112.172 182.305 111.641 181.868 110.43L179.071 102.743C178.985 102.493 178.938 102.227 178.938 101.938C178.938 101.118 179.547 100.555 180.453 100.555C181.25 100.555 181.711 100.915 181.938 101.704L184.219 109.196H184.282L186.539 101.665C186.758 100.899 187.203 100.555 187.969 100.555C188.844 100.555 189.446 101.094 189.446 101.891C189.446 102.157 189.399 102.399 189.305 102.649L186.485 110.43C186.055 111.641 185.344 112.172 184.18 112.172ZM194.782 112C193.876 112 193.344 111.454 193.344 110.5V102.227C193.344 101.274 193.876 100.727 194.782 100.727H199.946C200.719 100.727 201.219 101.149 201.219 101.883C201.219 102.618 200.704 103.04 199.946 103.04H196.212V105.282H199.774C200.469 105.282 200.93 105.672 200.93 106.336C200.93 107 200.485 107.391 199.774 107.391H196.212V109.688H199.946C200.704 109.688 201.219 110.11 201.219 110.844C201.219 111.579 200.719 112 199.946 112H194.782Z" fill="white"/>
<rect x="32" width="19" height="295" fill="#012E26"/>
<path d="M291 0H310V295H291V0Z" fill="#012E26"/>
<rect x="113" width="19" height="295" fill="#012E26"/>
<rect x="210" width="19" height="295" fill="#012E26"/>
</svg>
