<svg width="1080" height="1080" viewBox="0 0 1080 1080" fill="none" xmlns="http://www.w3.org/2000/svg">
<path d="M603.019 734.472C597.15 735.237 591.796 735.87 586.957 736.414C558.468 739.532 547.025 738.958 547.025 738.958C547.025 738.958 518.138 737.988 492.296 734.649C475.823 732.516 460.586 729.428 454.894 725.015C440.274 713.69 469.307 682.612 500.709 670.698C532.126 658.799 575.382 663.506 597.488 678.876C619.595 694.231 645.466 728.928 603.019 734.472Z" fill="#211919"/>
<path d="M586.957 736.414C558.468 739.532 547.025 738.958 547.025 738.958C547.025 738.958 518.138 737.988 492.296 734.649C495.208 726.677 499.783 719.47 505.578 713.763C513.432 706.056 523.477 701.159 533.905 699.967C540.848 699.173 547.878 699.982 554.717 701.526C558.938 702.482 563.116 703.733 567.057 705.659C575.103 709.601 582.118 716.646 585.266 725.736C586.443 729.119 587.001 732.781 586.957 736.414Z" fill="#4F4F4F"/>
</svg>
