<svg width="390" height="562" viewBox="0 0 390 562" fill="none" xmlns="http://www.w3.org/2000/svg">
<g clip-path="url(#clip0_830_12978)">
<path d="M190.62 327.34C190.17 327.34 189.76 327.04 189.65 326.58C188.92 323.65 187.03 321.03 184.47 319.41C184 319.12 183.86 318.5 184.15 318.03C184.44 317.56 185.06 317.42 185.53 317.72C188.53 319.61 190.73 322.67 191.59 326.1C191.72 326.64 191.4 327.18 190.86 327.31C190.78 327.33 190.7 327.34 190.62 327.34Z" fill="black"/>
<path d="M212.59 322.45C208.7 319.66 203.77 317.92 200.07 318.01C195.88 318.11 191.75 319.6 188.44 322.22L187.2 320.65C190.84 317.76 195.4 316.11 200.02 316C205.01 315.86 210.4 318.41 213.76 320.82L212.59 322.44V322.45Z" fill="black"/>
<path d="M210.85 328.39C210.85 328.39 210.77 328.39 210.72 328.39C210.17 328.32 209.78 327.82 209.85 327.27C210.29 323.76 212.12 320.47 214.87 318.23C215.3 317.88 215.93 317.95 216.28 318.37C216.63 318.8 216.56 319.43 216.14 319.78C213.79 321.7 212.22 324.52 211.84 327.52C211.78 328.03 211.35 328.4 210.85 328.4V328.39Z" fill="black"/>
</g>
<defs>
<clipPath id="clip0_830_12978">
<rect width="32.51" height="12.39" fill="white" transform="translate(184 316)"/>
</clipPath>
</defs>
</svg>
